<?xml version="1.0" encoding="UTF-8" standalone="no" ?>
<!DOCTYPE svg PUBLIC "-//W3C//DTD SVG 1.1//EN" "http://www.w3.org/Graphics/SVG/1.1/DTD/svg11.dtd">
<svg xmlns="http://www.w3.org/2000/svg" xmlns:xlink="http://www.w3.org/1999/xlink" version="1.1" width="801" height="534" viewBox="0 0 801 534" xml:space="preserve">
<desc>Created with Fabric.js 3.4.0</desc>
<defs><linearGradient id="Gradient1" x1="0%" y1="0%" x2="0%" y2="100%">
                    <stop stop-color="#FF9900" offset="0%"/>
                    <stop stop-color="#FFFF99" offset="100%"/>
                  </linearGradient>
</defs>
<rect x="0" y="0" width="100%" height="100%" fill="url(#Gradient1)"></rect>
<g transform="matrix(0.46730135 0 0 0.46678721 226.60467935 266.90407762)"  >
<g style=""   >
		<g transform="matrix(1 0 0 1 -0.5 0)" id="Layer_1"  >
<path style="stroke: none; stroke-width: 1; stroke-dasharray: none; stroke-linecap: butt; stroke-dashoffset: 0; stroke-linejoin: miter; stroke-miterlimit: 4; fill: rgb(218,124,38); fill-rule: nonzero; opacity: 1;"  transform=" translate(-476.75, -418.85)" d="M 466.9 0 c 8.7 1.4 14.7 8.7 18.9 15.9 c 11 18.3 20.8 38.4 21.8 60.1 c 0.4 17.9 -3.8 35.7 -10.2 52.3 c 7.8 -1.2 16.4 -1.4 23 -6.4 c 3.7 -3 7.3 -6.1 10 -10 c 3 -4.9 -1 -10.7 1.1 -15.8 c 3.3 -6.9 9.4 -13.2 17.3 -14.4 c -0.2 5.4 -2.5 11.1 -0.2 16.3 c 3.3 6.8 7.2 13.4 8.6 20.9 c 1 5.2 0.1 10.6 -0.6 15.8 c 15.9 2.3 32.1 -0.9 46.9 -6.8 c 9.7 -4 19 -10.3 24.7 -19.3 c 4.8 -7.8 10 -15.7 12.2 -24.7 c 2.2 -9.2 3.4 -18.6 4.6 -28 c 0.6 -5.4 0.8 -11.1 3.5 -16 c 2.9 -5.5 7.3 -10.1 11.5 -14.6 c 3.2 -1.3 7.1 -0.9 10.3 0.3 c 0 0.2 0 0.7 0 0.9 c -3.1 2.5 -7.3 4.7 -8.2 9 c -1.4 6.7 -2.7 13.9 -0.6 20.6 c 1.1 4.1 4.1 7.2 6 11 c 2.8 5.5 5.3 11.1 8.8 16.2 c 9 13.3 17.7 27.5 20.1 43.7 c 1.4 8.3 0.4 17.1 -3.3 24.7 c -4.3 9.1 -11.2 16.7 -19.3 22.5 c -9.7 6.6 -17.2 15.8 -24 25.3 c 11.1 7.9 25.8 11.8 39.1 7.8 c 9.5 -3.8 14.2 -13.6 19.2 -21.9 c 6.1 -10.9 18.3 -17.3 30.5 -18.2 c 8.8 -1 17.4 1.9 25.2 5.6 c -7.3 3.1 -16.1 0.7 -22.8 5.5 c -8.9 7.1 -13.3 18.6 -13.9 29.8 c -0.4 8.4 3.5 16 7.2 23.2 c 2.1 4.1 5.4 7.5 7.4 11.6 c 1.9 3.8 2.1 8 2.4 12.2 c 8.4 -6.5 18.5 -11.9 29.4 -11.4 c 6.5 0.4 13.3 0.9 18.9 4.5 c 3.3 2 5 5.6 7.5 8.4 c 4.5 5.1 10.6 9.1 17.4 10.2 c 5.9 0.9 11.8 -0.5 17.6 -0.8 c -3.6 4.8 -9.7 6.7 -15.4 6.5 c -6.4 0.2 -12.6 -2.4 -19.1 -1.5 c -7.8 0.9 -15 4 -22 7.2 c -7.6 3.3 -12.4 11.7 -11.4 19.9 c 0.9 9.8 6.5 18.3 8.1 28 c 0.7 4.9 0.2 9.9 0.4 14.9 c 7.8 -3.7 15.3 -8.4 23.9 -9.8 c 13.7 -2.6 28.4 -3.8 41.6 1.5 c 10.6 4.2 21.7 8.8 29 17.9 c 11.6 14 15.3 32.4 24 48 c 3 5.4 8.7 8.7 14.3 10.9 c 7.4 2.8 15 6.6 23.1 5.8 c 8.6 -0.6 15.4 -6.3 22.6 -10.5 c -1.6 10 -11.4 14.8 -18.4 20.7 c -7.2 7 -14.8 14.1 -24.5 17.5 c -5.4 1.8 -11.5 2.8 -17 0.5 c -13.5 -5.3 -24.9 -14.8 -38 -21 c -8.6 -4.2 -18.2 -6.1 -27.8 -6.9 c -10.3 -0.9 -19.2 5.2 -27.7 10.1 c -6.9 3.8 -12.1 10 -17.6 15.4 c 8 0.7 16.1 1.7 23.5 4.8 c 13.6 5.3 23.8 16.1 34.3 25.8 c 9.3 8.6 15.1 20.1 23.3 29.6 c 5 5.5 8.9 13 7 20.6 c -4.7 -4.8 -7.9 -11 -13.4 -15.1 c -11.6 -8.7 -26.1 -12.9 -40.5 -13.7 c -12.7 1 -25.9 4.8 -35.3 13.8 c -6.3 5.9 -11.2 13.2 -14.3 21.3 c -3 7.8 -8.4 14.2 -12.9 21 c 8.9 3.6 18.2 8.8 22.4 18 c 3.1 7.2 5.5 15 5.1 22.9 c -0.2 4 -1.6 7.8 -2.7 11.6 c -2.4 8.1 -4.6 16.3 -7.3 24.3 c -1.5 4.9 -3.1 10.2 -1.7 15.3 c 2.8 10 6.3 20.2 13.7 27.8 c 4.5 4.6 9.3 8.8 14.5 12.6 c 5.9 3.9 13.2 1.2 19.7 1.5 c -4 5.9 -11.7 6.8 -18.3 6.9 c -22.8 -0.7 -46.4 -3.7 -66.3 -15.4 c -15.4 -9.7 -27.6 -23.6 -38.2 -38.3 c -2.8 7.1 -7.6 13.8 -7.5 21.7 c 0.2 5.4 0.9 10.9 3.3 15.8 c 3.1 4.2 9.2 4.6 12 9 c 3.8 6.5 4.7 14.5 3 21.8 c -5.5 -2.1 -8.7 -8 -14.7 -8.9 c -7 -1.4 -14.3 -1.5 -20.9 -4.2 c -5.3 -2 -9.3 -5.9 -13.5 -9.6 c -4.3 5.8 -9.5 11.1 -12.4 17.9 c -5.8 13.2 -11.1 27.5 -9.8 42.2 c 0.5 6.7 3.1 13 5.8 19.1 c 2.6 5.6 5.5 11 9.2 15.9 c 8.6 10.7 19.7 18.9 29.7 28.3 c 6.5 6.3 7.6 15.7 9.9 23.9 c -1.6 3.3 -3.8 6.3 -6.8 8.4 c -0.4 -4.2 0.3 -9.2 -2.8 -12.6 c -4.8 -5.1 -10.2 -10.1 -16.9 -12.5 c -5.2 -1.8 -10.8 -0.6 -16.1 -1.6 c -6.9 -1.2 -13.9 -1.8 -20.9 -1.6 c -16.3 -0.3 -33.4 -2.2 -47.4 -11.2 c -13.5 -9 -19.7 -25.7 -20 -41.4 c -0.1 -11.9 -3.4 -23.5 -7.6 -34.6 c -13 4.8 -24.7 15.2 -28.7 28.8 c -2.2 11.2 5.3 20.8 9 30.8 c 6.7 19.2 -4.6 42.1 -23.3 49.6 c 3.2 -7.4 9.2 -14 9.2 -22.5 c -1.3 -11.8 -9.1 -22.1 -18.7 -28.7 c -5.7 -4 -12.9 -4.6 -19.6 -5.8 c -5.9 -1.1 -11.9 0.3 -17.7 -1 c -7 -2 -13 -6.4 -18.6 -11 c -7.9 10.3 -18.7 19.6 -31.9 21.9 c -12.8 1.5 -26.2 5.6 -35.1 15.5 c -3 3.3 -5 7.5 -8.9 9.9 c -0.4 -4.2 0.6 -8.4 3.2 -11.7 c 4.8 -6.9 12.9 -10.5 18 -17 c 5.4 -6.6 8.9 -14.8 10.3 -23.2 c 0.8 -5.7 -3.2 -11 -8.3 -13.2 c -10.8 -5 -23.1 -3.8 -34.3 -6.9 c -6 -1.6 -11.5 -4.4 -17 -7.1 c -2.3 8.3 -3.6 17.3 -9.1 24.2 c -4.2 5.5 -7.2 11.9 -12.5 16.5 c -5.6 4.8 -10.8 10.1 -17.4 13.4 c -13.1 7 -26.8 14.4 -42 15.2 c -15.5 0.8 -30.9 -1.8 -46 -5 c -9.9 -2 -20.8 -2.8 -30 2 c -9.6 5 -20.3 9 -27.1 17.9 c -5.2 6.5 -6.1 15 -7.8 22.8 c -4.6 -4.6 -4.9 -11.6 -3.9 -17.7 c 1.8 -11.7 -0.9 -24.1 3.6 -35.4 c 2.8 -7.4 7.9 -14.4 15.4 -17.5 c 13.9 -6 28.4 -10.2 42.5 -15.6 c 9.1 -3.5 17.2 -9.2 24.8 -15.3 c 4.3 -3.4 8.5 -7.3 10.6 -12.4 c 5.2 -12.4 6.8 -26.3 4.6 -39.6 c -12.4 12.2 -28.7 20.3 -45.9 23 c -10.8 1.6 -21.6 3.8 -32.6 4.3 c -9 0.5 -18 -1.2 -27 -0.7 c -6 -0.2 -12.2 0.9 -18 -1.1 c -3.2 -1.1 -5.9 -3.3 -8.1 -5.8 c 6.1 -0.3 12.3 0.3 18.4 -0.4 c 16.1 -3 30.9 -11.3 43.1 -22.1 c 2.9 -2.5 4.9 -5.8 6.9 -8.9 c 4.2 -6.8 7.6 -14.4 8.2 -22.5 c 0 -6.2 -1.3 -12.3 -3.3 -18.2 c -2 -5.7 -5.7 -10.5 -7.6 -16.2 c -1.7 -5 -3 -10.1 -4.4 -15.1 c -9.7 4.8 -20.9 8 -31.7 5.2 c -6.8 -2.1 -13.8 -4.2 -19.5 -8.5 c -3.9 -2.9 -6.4 -7.2 -9.1 -11.1 c -5.6 -8.1 -10.9 -16.3 -16.5 -24.4 c -5.3 -7.3 -14.5 -9.3 -22.5 -12.2 c -11.9 -4.3 -24.9 -2.1 -36.9 0.3 c -7.2 2 -10.2 9.6 -15.8 13.8 c -0.2 -9.3 6.1 -16.8 12.7 -22.6 c 15.9 -14.6 33.7 -28.2 54.7 -34.2 c 18.2 -4.8 37.3 -5.2 55.8 -2.8 c -3.2 -7.1 -6 -15.1 -12.4 -20 c -3.5 -2.4 -7.1 -4.8 -11 -6.5 c -6.3 -3.1 -12.4 3.4 -18.9 1.9 c -7.3 -1.7 -14.5 -5.7 -17.9 -12.5 c 4.9 -1 10.1 -0.8 14.7 -2.8 c 6.5 -3.8 11.6 -9.7 18.5 -12.9 c 5.5 -3 11.9 -3.4 18 -3.8 c -1.5 -7 -2.3 -14.4 -5.7 -20.8 c -6.7 -14.5 -15.7 -29 -29.8 -37.2 c -8 -4.2 -16.8 -6.9 -25.7 -8.6 c -12.3 -2.5 -24.8 -0.6 -37.1 0.4 c -6 0.4 -12 1.8 -17.9 0.4 c -6.6 -1.5 -12.5 -4.9 -18.4 -8.2 c -1 -3.3 -1.8 -6.6 -2.3 -10 c 4.6 1.9 8.3 6.6 13.6 6.1 c 6.9 -0.2 14.1 -0.8 20.2 -4.3 c 3.4 -1.8 5.6 -5 8.5 -7.5 c 4.9 -4.2 10.3 -7.7 14.7 -12.4 c 10.4 -10.9 21.8 -21.3 35.8 -27.3 c 14.4 -6.6 31.5 -3.8 44.7 4.2 c 7.5 4.3 13.3 10.9 20.9 15 c 6.1 3.4 12.4 6.6 19.1 8.9 c 5.5 -13.1 4.8 -29.2 -3.8 -40.9 c -14.3 -0.1 -29.3 -4.3 -39.7 -14.5 c -4.7 -4.7 -7.8 -10.7 -10.1 -16.8 c -1.6 -4.5 -1.7 -9.6 0.1 -14.1 c 2.9 -7.4 3.2 -16 0.1 -23.5 c -2.5 -5.7 -7.4 -9.6 -10.7 -14.8 c 9.1 0.8 14.8 9 18 16.8 c 4.4 10.9 14.6 17.9 24.4 23.7 c 6.3 3.8 14.9 3.2 20.7 -1.3 c 7.5 -5.4 11.5 -13.9 17.4 -20.8 c 4 -4.8 9.5 -8 14.8 -11.2 c -8.8 -4.8 -18.1 -9.5 -24.6 -17.3 c -8.1 -8 -14.9 -17.6 -18.3 -28.5 c -3 -11.4 -5.2 -23.4 -3.2 -35.2 c 3.6 -14.6 12.8 -26.8 20.9 -39.1 c 4.7 -6.9 9.6 -15.1 7.8 -23.8 c -2 -9 -2.9 -18.9 -8.8 -26.4 c -5.3 -6.9 -13.9 -9.6 -21.5 -13.3 c 9.3 -4.1 18.8 1.3 27.7 3.7 c 11.2 2.5 23.3 5.1 31.7 13.6 c 3.2 3.1 5.8 7.1 6.5 11.5 c 2.4 14.3 1.7 28.9 3.8 43.2 c 1.6 9.7 5.8 18.9 10.8 27.3 c 5.4 8.1 14.7 11.8 23.1 15.8 c 7 3.5 14.9 4.5 22.5 5.9 c -5.6 -9.2 -9.5 -19.5 -10.3 -30.2 c -0.9 -11.4 1.4 -22.7 3.1 -33.9 c 1.8 -12.2 7.4 -23.4 11.1 -35 c 1.3 -3.9 1.9 -8.1 4.3 -11.6 c 2.1 -3.4 5.4 -5.9 9.1 -7.5 c -1.3 7.2 -5.1 13.8 -5.1 21.2 c 0.1 14.2 4.7 28.3 12.3 40.2 c 8 9.8 18.6 18.3 31.2 20.8 c 7.6 1.3 15.6 1.7 23.2 0 c 8.7 -2.1 17.7 -1.5 26.5 -1.3 c -2.1 -9.5 -3 -20.3 2.2 -29 c 5.2 -8.1 11.6 -16.2 21.1 -19.3 c 10.5 -3.5 21 -7 31.7 -10.1 c 5.1 -1.5 10.2 -4.1 13.6 -8.4 c 5.5 -7 11.3 -14.3 13.4 -23.1 c 1.7 -7.1 2.7 -14.5 2.8 -21.9 C 476.3 10.2 469.8 6 466.9 0 M 481.8 20.5 c -0.7 5.9 -0.5 11.8 -1.8 17.7 c -1.3 7 -5.4 13 -9.2 19 c -3.8 5.1 -7.3 11 -13 14.2 c -7.2 4.1 -15.6 4.9 -23.3 7.7 c -7.1 2.6 -14.6 4.2 -21.2 7.9 c -14.5 8.6 -21.2 28.4 -14.5 43.9 l 0.5 0.1 c 0.8 3.4 3.7 5.6 6.6 7.2 c 3 3.7 6.8 6.8 9.5 10.8 c -0.8 0.1 -2.5 0.4 -3.3 0.6 c -3.6 -4.4 -8.5 -7.5 -13 -11 c -6.1 -4.9 -14.7 -6.2 -22.2 -4.3 c -5.9 0 -11.6 1.7 -17.4 2.1 c -6 -0.7 -12.1 0.3 -18 -1.2 c -12 -2.8 -22.7 -9.9 -31.2 -18.8 c -8.4 -9.5 -13.1 -21.9 -15.1 -34.3 c -0.5 -2.2 -0.3 -4.8 -2.2 -6.3 c -8.3 16.5 -10.6 35.2 -12 53.4 c -0.8 10.4 2.5 20.6 6.7 30 c 2.2 4.9 7.1 7.6 10.7 11.3 c 0 0.3 0 1 0 1.4 c -5.3 1.8 -10.6 -0.6 -15.8 -1.2 c -13.6 -1.5 -26.1 -7.7 -37.5 -14.9 c -5.6 -3.5 -9.1 -9.3 -12.2 -14.9 c -3.2 -6.2 -5.9 -12.8 -7.6 -19.6 c -3.8 -15.8 -0.7 -32.4 -5.1 -48 c -1.5 -5.4 -5.9 -9.4 -10.5 -12.3 c -7.1 -3.4 -14.7 -6 -22.6 -6.3 c 2.2 4.5 5 8.7 6.3 13.6 c 1.9 6 2.2 12.4 4.5 18.4 c -0.7 4.1 -1.6 8.2 -2.3 12.3 c -7.8 12.4 -16.4 24.2 -23.2 37.2 c -1.8 3.7 -3.9 7.3 -4.4 11.5 c -1.8 17 1.3 35 10.7 49.5 c 2.9 4.7 6.9 8.5 10.5 12.5 c 6 6.8 14.2 11 22.5 14.4 c 3.3 1.5 7.3 2.1 9.5 5.4 c -6.3 2.8 -13.3 4.2 -18.5 9 c -9 6.9 -13 18.2 -21.9 25.1 c -6.9 5 -16.4 7.8 -24.6 4.2 c -9.5 -3.6 -16.5 -11.3 -24.5 -17.1 c -1.6 1.4 -1.1 4.7 -1.2 6.8 c -2.8 11.6 -0.5 25.9 9.6 33.4 c 8.7 6.6 19.8 9.4 30.5 10 c 6.9 0.1 15.5 -3.6 21.1 2.1 c -4 0.6 -8.1 0.7 -12.2 1.4 c 2.2 4.5 4.8 8.9 5.6 14 c 1.3 10 1.4 20.5 -2.8 29.9 c 1.8 0.2 3.7 0.9 5.6 0.6 c 1.4 -1.9 2 -4.2 2.8 -6.4 c 6.4 -17.2 14.8 -33.6 24.5 -49.2 c 2.2 -3.6 4.9 -6.9 6.5 -10.9 c 3.8 -3.8 7.1 -8.3 9.7 -13 c 4.4 -4.3 7.9 -9.5 12.1 -14 c 12.3 -14.2 26.7 -26.3 41 -38.2 c 2.7 -1 4.8 -3 7.2 -4.6 c 38.1 -27 82.7 -44.9 128.9 -51.5 c 27.9 -3.7 56.3 -4 84.1 0.7 c 21.5 2.9 42.4 8.9 62.6 16.7 c 44.5 18.4 84.7 47.4 115.4 84.5 c 11.1 12.9 20.3 27.4 29.2 41.8 l -0.1 0.1 c 17.3 29.7 27.5 63.1 33.3 96.9 c -0.6 1.4 0 3 0.1 4.5 c 5.6 42.1 1 85.4 -12.2 125.8 c -1.4 4.6 -3.4 9 -4.5 13.7 c -1.3 2.9 -2.6 5.9 -3.4 8.9 c 2.6 -0.5 5.2 -1.1 7.8 -2 c 6.7 -1.5 13.6 -3.5 18.9 -8.1 c 5.6 -5.1 8.8 -12.2 11.9 -19 c 3.5 -7.9 8.2 -15.4 14.3 -21.7 c 10.1 -9.5 23.9 -14.4 37.5 -15.9 c 13.6 -1.2 26.4 4.5 38.6 9.9 c -0.4 -1.6 -0.8 -3.2 -1.8 -4.5 c -7.8 -11.9 -18 -22 -28.8 -31.1 c -4.2 -3.5 -8.3 -7.3 -13.3 -9.8 c -6.8 -3.4 -14.3 -5 -21.8 -6.3 c -5.7 -1.2 -11 1.8 -16.5 2.6 c 0.8 -3.5 2.8 -6.4 5.4 -8.8 c 6.3 -6.4 12.1 -13.4 19.8 -18 c 6.8 -4 13.7 -8.4 21.4 -10.5 c 7.5 -2.1 15.5 -1.4 23 0.2 c 6.6 1.5 13.2 3.2 19.2 6.4 c 13.4 6.9 25.1 17.2 39.9 21.1 c 12.7 0.2 23.7 -8.1 31.2 -17.6 c -12.8 0 -24.4 -6.1 -35.8 -11.1 c -1.6 -2.9 -4.1 -5.3 -5.8 -8.2 c -3.2 -5 -4.5 -10.9 -7.9 -15.7 c -2.8 -9.8 -7.7 -18.8 -12.5 -27.7 c -2.8 -5.5 -8.2 -8.7 -13.1 -12 c -9.2 -5.8 -19.4 -10.4 -30.3 -11.7 c -10.3 -1.3 -20.7 0.1 -30.8 2.4 c -8.8 2.5 -16.3 7.9 -23.8 13 c -0.9 0.4 -1.7 1.6 -2.8 1 c -1.3 -2.3 -0.2 -5 0.2 -7.4 c 2 -8.3 1.6 -17.3 -1.6 -25.3 c -2.9 -7.2 -5.9 -14.7 -5.6 -22.6 c 0 -6.9 2.9 -13.7 8.2 -18.1 c 8.3 -7.5 19.8 -9.5 30.3 -12.3 c -5.6 -8.2 -14.6 -14.1 -24.2 -16.6 c -10 -2.5 -19.9 2.5 -27.6 8.4 c -2.1 1.9 -5.2 3.4 -5.4 6.6 c -1.1 8.4 -5.1 16.1 -10.7 22.4 c -0.9 1.3 -2.5 1.7 -3.8 2.1 c 1.1 -4.8 4.1 -8.7 6.1 -13.1 c 3.6 -7 4.4 -15.1 3.2 -22.7 c 0.1 -5.8 -3.2 -11.2 -7 -15.4 c -8.4 -9.4 -12.6 -22.9 -9.7 -35.3 c 2 -10.1 7.6 -19 13.9 -27 c -5.6 -0.2 -11.8 0.9 -16 4.9 c -7.9 6.9 -10.1 18 -17.8 25.2 c -7.9 7.4 -19.6 11 -30.2 8.2 c -8.5 -1.5 -17 -4.4 -24 -9.6 c -1.5 2 -2.6 4.3 -4.7 5.6 c -1.4 -3.6 -0.8 -7.6 1.4 -10.7 c 6.1 -10.8 14.5 -20.4 24.9 -27.2 c 8.4 -5.5 15.1 -13.4 19.7 -22.3 c 4.5 -9.5 3 -20.5 0.3 -30.4 c -4 -14.8 -13.7 -27 -21.2 -40 c -2.8 -4.6 -4.6 -9.7 -7.8 -14 c -1.5 -2.6 -3.1 -5.1 -4 -8 c -1.4 -4.9 -0.6 -10 -1.8 -14.9 c -4.2 7.4 -3.7 16.1 -4.9 24.3 c -1.4 9.9 -2.8 20.2 -7.5 29.2 c -5 9.3 -9.7 19.1 -17.8 26.1 c -13.4 11.8 -31.3 16.5 -48.5 18.8 c -6.6 0.9 -13.2 -1.1 -19.7 -0.6 c -2.9 0.9 -5.4 2.5 -8.2 3.6 c 0 -5 3.3 -9.2 3.6 -14.1 c 0.3 -3.7 0.3 -7.4 -0.4 -11.1 c -1.6 -9.5 -7.6 -17.3 -10 -26.5 c -7.5 6.4 -0.6 17.9 -6.8 24.9 c -4.5 4.9 -9.1 10 -15.4 12.5 c -7.3 2.9 -15.1 4.3 -23 4 c -3.1 -0.2 -7.2 -1 -8.1 -4.5 c 1.7 -0.6 3.4 -1.1 5 -1.8 c 1.4 -2.2 1.8 -4.9 2.6 -7.3 c 4.5 -15.3 8.8 -31.1 7.3 -47.2 c -1.8 -16.4 -8.6 -31.8 -16.5 -46.1 C 484.6 24.1 483.9 21.6 481.8 20.5 M 309.5 206.8 c -26.7 16.7 -51.1 37.5 -70.6 62.3 c -12.1 15.4 -23.1 31.9 -31.4 49.8 c -1.2 0.1 -2.5 0.3 -3.7 0.5 c 0.4 1.4 0.9 2.8 1.6 4.1 c -2.4 3.3 -3.6 7.2 -5.3 10.9 c -17.8 41.3 -24.3 87 -21.2 131.8 c 2.7 40.1 14.4 79.4 34.3 114.3 c 13.4 23.4 29.8 45.1 49.4 63.7 c 23.2 21.5 49.7 39.7 78.8 52.4 c 41.4 18.4 87.2 26.4 132.5 24.3 c 68.1 -3 135.4 -30.7 183.9 -78.9 c 22.5 -21.8 41.9 -47.1 55.6 -75.3 c 7.1 -14.5 13.8 -29.4 17.4 -45.2 c 2.5 -5.8 3.4 -12.1 4.9 -18.2 c 9.1 -40.7 9.5 -83.5 0.1 -124.2 c -7.1 -31.6 -19.9 -61.9 -37.8 -88.9 c -18.8 -28.6 -42.9 -53.6 -70.6 -73.6 c -27.5 -20 -58.9 -34.5 -91.8 -43.1 c -11.3 -2.7 -22.7 -5.5 -34.3 -6.1 c -3.1 -1.9 -6.9 -1.3 -10.4 -1.9 C 428 159.3 363 173.2 309.5 206.8 M 95.8 323.1 c -16.4 6.6 -28.9 19.7 -41.1 32.1 c -8.8 4.8 -14.3 14.3 -24.1 17.6 c -3.1 0.5 -6.2 1.4 -9.1 2.7 c 4 1.4 8.5 0.4 12.4 1.9 c 0.1 -0.3 0.3 -0.8 0.4 -1.1 l 0.5 0 c 10.6 -1.7 21.3 -2.3 31.9 -2.2 c 8.9 0.5 17.4 3.4 25.9 5.9 c 6.5 1.9 12.5 5.2 17.8 9.3 c 12.5 9.7 20.6 23.8 26.8 38.1 c 2.4 5.3 3 11.2 4.1 16.9 c 0.5 4.3 4.7 6.4 6.6 9.9 c -5.4 0.6 -10.8 -1.2 -16.2 -0.4 c -9.1 1.2 -17.3 6 -24.2 11.9 c -2.8 2.6 -6.6 3.8 -9.5 6.3 c 8.7 4.9 18.3 -3.9 27 0.4 c 8.3 3.8 16.1 9.4 20.5 17.6 c 2.3 4.5 4.8 9 6 14 c 0.8 3.5 0.1 7.3 -2.4 10 c -1.6 -1.8 -2.5 -5.4 -5.4 -5.2 c -11 -0.1 -22.1 -1.7 -33.1 -0.3 c -9 1.1 -18.1 2.3 -26.5 5.8 c -16.3 6.8 -31 17.1 -43.4 29.6 c 6.7 -0.6 13.3 -2.6 20.1 -2.6 c 10.5 -0.1 20.3 4.3 29.9 7.8 c 7.5 2.8 12.7 9.5 16.5 16.3 c 3.7 6.5 8.2 12.5 12.3 18.7 c 8.7 13.9 27.5 19.8 42.8 15 c 6.1 -0.9 12.6 -3.8 15.8 -9.4 l 0.5 -0.1 c 3.6 -5.8 5.6 -13.4 12.1 -16.7 c -0.8 5 -3.2 9.5 -5.1 14.1 l -0.5 0 c -2.2 4.6 -4.2 9.6 -3.7 14.8 c 0.4 10.3 7.4 18.5 10.6 28 c 2.2 6.5 4.8 13.1 4.2 20 c -1 11.5 -6.4 22.1 -13.2 31.3 c -5.1 6.7 -12.6 10.9 -19.1 16 c -2.1 0.6 -3.9 2 -5.9 2.9 c -3.4 1.9 -7.4 2.8 -10.4 5.3 c 14.3 2.2 28.9 0.2 43.1 -2 c 11.3 -1.8 23 -3.6 33 -9.6 c 4.2 -2.7 8.5 -5.3 12.6 -8.4 c 4.9 -3.6 6.7 -9.7 9.8 -14.7 c 2.1 1.9 3.9 4.2 4.3 7.1 c 1.2 9.2 3.5 18.6 1.6 28 c -1.4 7.4 -2.9 15.1 -6.5 21.8 c -5.8 10 -15.7 16.7 -25.1 22.9 c -17.7 11 -39.2 13.3 -57.3 23.5 c -4.9 2.7 -8.3 7.6 -10.3 12.8 c -2.7 7.4 -2.8 15.5 -2 23.3 c 5.8 -4.7 11.4 -9.9 18.2 -13 c 5.7 -2.5 11 -5.9 17 -7.9 c 11.1 -3.3 22.7 -0.2 33.8 1.9 c 11.9 1.9 23.9 4.1 36 3.9 c 7.8 -0.1 15.1 -3.2 22.4 -5.8 c 16 -6.1 31.5 -15.3 41.8 -29.3 c 3.4 -4.9 7.5 -9.7 9.5 -15.4 c 2.9 -7.6 3.2 -15.8 4.1 -23.9 c 1.7 0 3.4 -0.1 5 -0.1 l -0.1 1.2 c 6.6 7.3 16.3 10.7 25.6 12.6 c 10.7 2.1 22.3 1.5 31.9 7.3 c 5.7 3.2 10.4 9.5 9.6 16.3 c -1.3 8.9 -6.4 16.5 -10.2 24.4 c 8 -0.5 15.7 -3.5 23 -6.7 l 0.1 -0.6 c 4.8 -1.5 9.2 -4.1 13.2 -7.1 c 12.7 -9.6 12.7 -30.8 1.4 -41.4 c -6 -1.4 -12.3 -1.3 -18.3 -2.6 c -21.2 -3.4 -42 -9.1 -62.1 -16.6 c -13.9 -5.3 -27.3 -11.9 -40.3 -19.3 c -28.5 -16 -53.4 -37.8 -74.9 -62.3 c -2.6 -4.8 -6.6 -8.6 -9.7 -13 c -5.5 -7 -9.9 -14.8 -15.2 -21.8 c -0.6 -1.4 -1.3 -2.8 -2.1 -4.1 c -24.7 -41.2 -37.9 -89 -38.8 -136.9 c -0.7 -14.9 1.1 -29.8 2.3 -44.6 c 2.9 -17.7 6.9 -35.2 12.6 -52.2 c -3.6 -0.3 -7.3 -0.4 -10.7 -1.6 c -11.6 -4 -22.8 -9.8 -31.9 -18.1 C 131.4 322.2 112.1 315.8 95.8 323.1 M 723.8 557.9 c -2.9 6.5 -6.1 12.8 -9.3 19.1 c -12.3 21.3 -26.7 41.4 -43.6 59.3 l 0.1 0.4 c -3.7 2.9 -6.7 6.5 -10 9.7 c -30.1 30.2 -67.8 52.2 -108.1 65.9 c 8.2 13 12 28.5 12 43.9 c -0.1 10.3 3.2 20.4 8.8 29 c 5.3 7.8 14.3 12.1 23.1 14.8 c 17.2 5.2 35.3 3.4 52.9 5.8 c 4.4 0.6 8.9 0.5 13.3 1.1 c 6 0.8 10.6 5.2 16 7.5 c -4.3 -8.6 -13.1 -13.3 -19.7 -19.8 c -3.9 -4 -8 -7.9 -11.8 -12.1 c -4.3 -4.7 -6.7 -10.8 -9.6 -16.4 c -3.7 -7.2 -7 -14.8 -7.5 -23 c -1.6 -17 4.5 -33.5 11.9 -48.5 c 2.8 -5.9 8.1 -10 11.4 -15.6 c 1.2 -3.2 1.1 -6.8 2.3 -10 c 3.6 2.8 5.3 7.2 8.5 10.3 c 2 2.1 4.5 3.7 7.1 5 c 9.3 6.2 21.2 4.9 31.3 8.8 c -1.2 -7.1 -8.4 -9.7 -13.3 -13.9 c -4.6 -3.5 -5 -9.8 -6.1 -15 c -1.7 -8.9 1.9 -17.7 5.9 -25.4 c 2.6 -5.3 6.4 -11.1 12.8 -12 c -0.3 2.3 -1.3 4.6 -1.1 7 c 3.3 5 7.7 9 11.3 13.7 c 6.5 8.5 14.8 15.5 23.5 21.7 c 15 9.4 32.8 13.2 50.2 14.7 c 2.7 0.1 5.3 0.2 8 0.2 c -2.3 -2.5 -5.2 -4.3 -8.1 -6.2 c -1.8 -2.8 -4.8 -4.6 -6.9 -7.2 c -5.8 -6.8 -8.3 -15.5 -12.4 -23.3 c -0.4 -4.1 -1.8 -8.1 -1.4 -12.3 c 0.8 -8 4.7 -15.3 6.7 -23 c 2.4 -9.2 6.4 -18.5 5.3 -28.2 c -1.6 -15.4 -14.7 -29.7 -30.5 -30.2 C 739.1 555 731.7 558.1 723.8 557.9 M 534 717.5 c -20.4 5.4 -41.4 8.5 -62.5 9.4 c -10.1 0.7 -20.1 0 -30.2 0 c 2 4.6 4.6 9.1 5.3 14.2 c 1.1 5.2 0 10.5 -0.6 15.8 c 5 5.9 12 10.1 19.7 11.3 c 6 1.1 11.9 -1 17.9 -0.4 c 4.2 0.3 8.2 1.9 12.4 2.6 c 1 0.8 2.3 1.3 3.5 1.6 c 3.2 2.9 7 5.1 10 8.3 c 5.4 5.6 9.6 12.5 12 19.9 c 0.7 2.2 1.4 4.4 2.8 6.3 c 2.1 -4.1 4.3 -8.5 4.1 -13.3 c -0.2 -6.8 -3.6 -13 -6.8 -18.8 c -2.3 -5.5 -4.6 -11.1 -4.7 -17.2 c -0.1 -9.6 4.5 -18.9 11.4 -25.3 c 6.1 -6 12.9 -11.5 21.2 -13.9 c -0.7 -1.3 -1.5 -2.6 -2.2 -3.8 C 542.9 714.8 538.5 716.5 534 717.5 M 686.3 375.7 c 1.7 -4.6 3.7 -9.2 7.2 -12.9 c 0.5 7.3 -3.3 13.7 -5.4 20.5 c -7 16.8 -13.4 34 -21.8 50.1 c -7.2 14.8 -16.6 28.4 -28 40.2 c -24.8 27.9 -56 51.1 -92.2 61.7 c -2.5 0.7 -5 1.2 -7.5 1.9 c -26.2 7.6 -53.3 12.2 -80.5 13.4 c -2.5 0.2 -5 0.1 -7.4 0.2 c -4.4 0.2 -8.7 1.1 -13.1 1.4 c -19.1 1.5 -38.4 -1.5 -56.8 -6.7 c -2.6 -0.8 -5.3 -1.5 -7.9 -2.1 c -1.7 -0.4 -3.4 -0.9 -5.1 -1.4 c -6.5 -2.3 -13 -4.3 -19.7 -5.7 c -7.8 -1.5 -14.8 -5.6 -22 -8.7 c -7.9 -3.5 -14.5 -9.6 -23 -11.9 c -1.6 -1 -3.2 -2.1 -4.7 -3.2 c -4.1 -3 -8.6 -5.4 -12.7 -8.5 c -5.7 -4.3 -12.1 -7.7 -17.1 -12.9 c -4.8 -4.7 -8.7 -10.3 -14 -14.4 c 1 11.3 5.2 21.8 9 32.4 c 3.7 9.4 8 18.7 12.8 27.6 c 3.6 7.1 7.6 14 11.7 20.8 c 1.4 2.3 3 4.4 4.5 6.6 c 6.9 12 15.6 22.9 25.3 32.8 c 5.2 5.5 11.4 9.8 17 14.9 c 5.5 4.8 11.4 9.2 17.7 12.8 c 2.1 1.3 4.3 2.7 6.5 3.9 c 7.7 4.2 15.2 8.9 23.6 11.6 c 10.6 3.8 21.7 6 32.7 8.2 c 10.7 2 21.7 0.7 32.5 0.6 c 2.9 -0.1 5.8 -0.3 8.6 -0.5 c 2.4 -0.3 4.7 -0.5 7.1 -0.7 c 7.9 -0.7 15.7 -2.3 23.2 -4.5 c 13.7 -4 27.9 -7.3 40 -15.2 c 5.3 -3.5 10.9 -6.5 16.2 -10.1 c 2.3 -1.6 4.6 -3.3 7 -4.7 c 7.7 -4 14.3 -10.1 22.7 -12.4 c 1.9 -0.7 4.1 0.2 5.1 2 c 3.8 8 3.3 18.3 -2.2 25.4 c -4.7 -6.6 -1.3 -14.9 -2.8 -22.2 c -10.3 5.4 -19.5 12.6 -29.6 18.5 c -9 5.2 -17.6 11.2 -27.4 14.8 c -9.2 3.6 -18.9 5.6 -28.3 8.5 c -13.3 3.9 -27.2 4.9 -41 5.7 c -8.6 0.4 -17.2 1 -25.8 0.2 c -9.8 -1.1 -19.5 -3.2 -29.2 -5.4 c -8.1 -1.8 -15.6 -5.8 -23.2 -9 c -10.3 -5 -20.6 -10.1 -29.5 -17.5 c -11 -9.3 -22.5 -18.1 -32.1 -28.9 c -9.5 -10 -16.2 -22.1 -23.1 -33.9 c -12.3 -21 -23.3 -43 -30.5 -66.4 c -2 -6.3 -2.9 -12.8 -4 -19.3 c -1.4 -7.7 -5.9 -14.3 -10.2 -20.8 c -1.3 -2.2 -2.2 -4.5 -3 -6.9 c -1.7 -5.2 -4.1 -10.2 -5.5 -15.6 c -2 -8 -5.6 -15.7 -6 -24 c -0.7 -7.5 1.2 -14.9 1.5 -22.3 c -8.4 2 -16 6.3 -23.7 10.1 c -1.1 0.4 -2.2 0.7 -3.3 1.1 c 1.3 -1.7 2.7 -3.3 4.4 -4.6 c 7.4 -3.9 14.6 -8.4 22.7 -10.7 c 4.9 -1.5 10.1 -1.6 15.1 -2.3 c 1.1 1.1 2.2 2.2 3.3 3.3 c -4.3 0.3 -8.5 0.8 -12.7 1.8 c -3.4 14.2 -1.2 29.1 3.4 42.8 c 3.4 10.2 6.4 20.7 12.3 29.8 c 4.9 10.5 12.7 19.2 20 28.1 c 3.3 4.1 7.5 7.4 12 10.1 c 7.9 4.6 15.4 9.9 23.2 14.6 c 15.6 9.5 32.2 17.5 49.4 23.6 c 19.4 5.9 38.9 12.2 59.2 14.3 c 15.6 1.6 31.3 -0.1 46.9 -1 c 15.1 -1.4 30.4 -2.1 45.2 -5.8 c 15.8 -3.9 32.1 -5.7 47.4 -11.5 c 19.1 -7.1 36.9 -17.6 53 -30.1 c 11.7 -8.8 22 -19.3 32 -29.9 c 9.3 -9.8 17.4 -20.7 23.7 -32.6 C 670 415.8 678.2 395.7 686.3 375.7 M 487.3 374 c 0 -4.3 -4.1 -6.7 -5.2 -10.5 c 5.3 3.9 9.9 9.7 9.9 16.6 c 0 7.1 -4.5 13.3 -10.1 17.2 c -9.3 6.4 -21.3 8.2 -32.3 6.5 c -8.5 -1.4 -17.1 -5.4 -22.1 -12.6 c -3.9 -5.6 -4.6 -14 -0.1 -19.4 c 0 3.8 -0.5 7.7 0.6 11.4 c 2.1 7.5 8.2 13.8 15.8 15.9 c 6.4 2.2 13.2 1.8 19.7 0.3 C 476.1 398.4 488 387.2 487.3 374 L 487.3 374 z" stroke-linecap="round" />
</g>
		<g transform="matrix(1 0 0 1 3.7 -1.4)" id="Layer_1"  >
<path style="stroke: none; stroke-width: 1; stroke-dasharray: none; stroke-linecap: butt; stroke-dashoffset: 0; stroke-linejoin: miter; stroke-miterlimit: 4; fill: rgb(254,199,27); fill-rule: nonzero; opacity: 1;"  transform=" translate(-480.95, -417.45)" d="M 481.8 20.5 c 2.1 1.2 2.9 3.6 4.1 5.5 c 7.9 14.3 14.8 29.7 16.5 46.1 c 1.5 16.1 -2.8 31.9 -7.3 47.2 c -0.8 2.5 -1.2 5.1 -2.6 7.3 c -1.6 0.8 -3.3 1.3 -5 1.8 c 0.9 3.5 5 4.3 8.1 4.5 c 7.8 0.3 15.7 -1.1 23 -4 c 6.3 -2.5 11 -7.6 15.4 -12.5 c 6.3 -7 -0.6 -18.5 6.8 -24.9 c 2.4 9.2 8.4 17.1 10 26.5 c 0.7 3.6 0.8 7.4 0.4 11.1 c -0.4 4.9 -3.6 9.1 -3.6 14.1 c 2.8 -1.1 5.3 -2.8 8.2 -3.6 c 6.6 -0.5 13.1 1.5 19.7 0.6 c 17.3 -2.3 35.2 -7 48.5 -18.8 c 8.2 -6.9 12.9 -16.8 17.8 -26.1 c 4.8 -9 6.1 -19.3 7.5 -29.2 c 1.3 -8.1 0.8 -16.9 4.9 -24.3 c 1.2 4.9 0.4 10 1.8 14.9 c 0.9 2.8 2.5 5.4 4 8 c -3.7 7.3 -5.8 15.3 -8.7 23 c -2.2 6.1 -3.4 12.5 -5.5 18.6 c -1.3 4.2 -5 6.9 -7.9 10 c -2.7 2.7 -4.8 6 -7.3 8.8 c -2.6 3.1 -6.7 4.1 -10.2 5.8 c -7 3 -12.7 8.3 -19.7 11.4 c -15.3 7 -27 20.4 -33.3 35.8 c -20.2 -7.8 -41.1 -13.8 -62.6 -16.7 c -27.8 -4.7 -56.2 -4.4 -84.1 -0.7 c -3.1 -3.7 -6 -7.5 -8.7 -11.5 c 0.8 -0.1 2.5 -0.4 3.3 -0.6 c -2.7 -4 -6.5 -7.1 -9.5 -10.8 c -0.8 -2 -0.9 -4.3 -2.2 -6 c -1.4 -0.6 -2.9 -0.8 -4.4 -1.1 l -0.5 -0.1 c -6.7 -15.6 -0.1 -35.3 14.5 -43.9 c 6.6 -3.7 14.1 -5.3 21.2 -7.9 c 7.7 -2.8 16.1 -3.6 23.3 -7.7 c 5.7 -3.2 9.2 -9 13 -14.2 c 3.7 -5.9 7.9 -11.9 9.2 -19 C 481.3 32.3 481.1 26.4 481.8 20.5 M 187.3 54.5 c 7.9 0.2 15.5 2.9 22.6 6.3 c -5.3 7.9 -9 16.7 -11.9 25.7 c -2.3 -5.9 -2.5 -12.3 -4.5 -18.4 C 192.3 63.2 189.5 59 187.3 54.5 M 172.5 136 c 6.8 -13 15.4 -24.8 23.2 -37.2 c -0.2 5.8 0.3 11.5 0.6 17.2 c 0.6 7.7 -1.2 15.4 -0.6 23 c 0.6 8.7 2.2 17.4 5.6 25.5 c -2.6 5 -2.9 11.6 0.8 16.1 c 2.8 3.3 7.1 4.4 11.1 5.4 c 6.8 7.3 14 14.6 22.8 19.5 c 14.6 8.8 31.9 12 48.8 11.3 c -14.4 12 -28.8 24.1 -41 38.2 c -4.3 4.5 -7.7 9.6 -12.1 14 c 2.7 -8.6 3.4 -18.3 -0.4 -26.6 c -2.1 -5.2 -6.2 -9.2 -9.9 -13.3 c -2.2 -3.2 -6.2 -3.9 -9.5 -5.4 c -8.3 -3.4 -16.5 -7.6 -22.5 -14.4 c -3.6 -4.1 -7.6 -7.9 -10.5 -12.5 c -9.4 -14.5 -12.5 -32.4 -10.7 -49.5 C 168.6 143.3 170.7 139.6 172.5 136 M 359.7 136.3 c 5.8 -0.5 11.5 -2.2 17.4 -2.1 c -5.7 2.3 -11.1 5.1 -16.9 7.1 C 359.9 139.5 359.8 137.9 359.7 136.3 M 749.1 257.4 c 7.7 -6 17.6 -10.9 27.6 -8.4 c 9.6 2.5 18.6 8.4 24.2 16.6 c -10.5 2.8 -22 4.8 -30.3 12.3 c -5.2 4.5 -8.1 11.3 -8.2 18.1 c -0.3 7.9 2.7 15.4 5.6 22.6 c 3.2 8 3.6 17 1.6 25.3 c -0.4 2.4 -1.6 5.1 -0.2 7.4 c 1.1 0.6 1.9 -0.6 2.8 -1 c 7.5 -5.1 15 -10.5 23.8 -13 c 10 -2.4 20.5 -3.7 30.8 -2.4 c 10.9 1.2 21.1 5.9 30.3 11.7 c 4.9 3.3 10.3 6.5 13.1 12 c 4.9 8.9 9.8 17.9 12.5 27.7 c -5.2 -4.9 -10 -10.3 -16 -14.3 c -11.3 -7.9 -24.6 -13.4 -38.4 -14.5 c -4.3 -5.5 -11.8 -9.1 -18.8 -6.7 c -4.8 1.2 -8.4 4.9 -10.8 9 c -15.2 2.9 -28.9 11.6 -39.4 22.8 c -5.7 5.4 -9.5 12.3 -13.8 18.8 c -5.9 -33.8 -16 -67.1 -33.3 -96.9 l 0.1 -0.1 c 13.6 -10.7 22.2 -27.4 23.5 -44.6 c 0.1 -2.6 1.5 -4.9 2.6 -7.2 c 1.3 7.7 0.4 15.8 -3.2 22.7 c -2 4.4 -5 8.3 -6.1 13.1 c 1.4 -0.4 2.9 -0.8 3.8 -2.1 c 5.6 -6.3 9.5 -14.1 10.7 -22.4 C 743.9 260.9 747 259.3 749.1 257.4 M 140.3 290.6 c -10.1 -7.5 -12.4 -21.8 -9.6 -33.4 c 2.2 7.4 4.8 15 10.3 20.7 c 7.6 8.1 18.9 12.7 30 11.6 c 4.9 -0.6 9.7 -2.2 14.6 -1.5 c 7 0.8 14.1 1.4 21 0.3 c 5.5 -0.8 10.5 -3.5 15.3 -6.2 c -1.6 3.9 -4.3 7.3 -6.5 10.9 c -9.7 15.6 -18.1 32 -24.5 49.2 c -0.9 2.1 -1.4 4.5 -2.8 6.4 c -1.9 0.3 -3.7 -0.3 -5.6 -0.6 c 4.1 -9.4 4.1 -19.9 2.8 -29.9 c -0.8 -5 -3.5 -9.4 -5.6 -14 c 4 -0.7 8.1 -0.8 12.2 -1.4 c -5.6 -5.7 -14.2 -2 -21.1 -2.1 C 160 299.9 148.9 297.2 140.3 290.6 M 81.6 347.3 c 25.4 -3.5 52.3 5.2 70.3 23.5 c -4.4 0.7 -9.1 1 -12.9 3.7 c -7.7 6 -7.4 19.9 1.3 24.9 c 6.6 4.4 16.3 2.5 20.6 -4.1 c 2.3 -2.9 2.9 -6.7 3 -10.4 c 3.7 6.8 6.6 13.9 10.1 20.7 c -1.2 14.8 -3 29.7 -2.3 44.6 c 0.9 47.9 14.1 95.8 38.8 136.9 c 0.7 1.3 1.4 2.7 2.1 4.1 c -8.6 -3.4 -17.9 -4.6 -27.1 -3.9 c 1.9 -4.6 4.3 -9.1 5.1 -14.1 c -6.5 3.3 -8.5 10.9 -12.1 16.7 l -0.5 0.1 c -6.1 1.4 -11.4 5 -15.8 9.4 c -15.3 4.8 -34.1 -1.1 -42.8 -15 c -4.1 -6.2 -8.6 -12.2 -12.3 -18.7 c -3.8 -6.8 -8.9 -13.5 -16.5 -16.3 c -9.7 -3.6 -19.4 -7.9 -29.9 -7.8 c -6.8 -0.1 -13.4 2 -20.1 2.6 C 53 531.5 67.8 521.3 84 514.4 c 8.4 -3.6 17.5 -4.8 26.5 -5.8 c 11 -1.3 22.1 0.2 33.1 0.3 c 3 -0.2 3.8 3.3 5.4 5.2 c 2.5 -2.7 3.2 -6.5 2.4 -10 c -1.1 -5 -3.6 -9.5 -6 -14 c -4.4 -8.2 -12.3 -13.8 -20.5 -17.6 c -8.8 -4.3 -18.3 4.5 -27 -0.4 c 2.9 -2.4 6.7 -3.7 9.5 -6.3 c 6.8 -5.9 15.1 -10.7 24.2 -11.9 c 5.4 -0.9 10.8 0.9 16.2 0.4 c -2 -3.5 -6.1 -5.7 -6.6 -9.9 c -1.1 -5.7 -1.7 -11.6 -4.1 -16.9 c -6.2 -14.3 -14.4 -28.3 -26.8 -38.1 c -5.3 -4.1 -11.3 -7.4 -17.8 -9.3 c -8.5 -2.5 -17 -5.4 -25.9 -5.9 c -10.7 -0.1 -21.4 0.5 -31.9 2.2 l -0.5 0 c -1.4 -0.2 -2.9 -0.2 -4.4 -0.2 c 0.2 -1.1 0.4 -2.2 0.6 -3.3 c 9.8 -3.3 15.2 -12.8 24.1 -17.6 C 63.4 351.9 72.2 348.4 81.6 347.3 M 120.9 361.5 c -2 0.9 -3.2 3.3 -2 5.3 c 1.1 2.8 5.6 3.2 7 0.5 C 127.9 364.3 124.4 359.5 120.9 361.5 M 153 416.5 c -5.8 1.5 -7.8 10.5 -2.6 13.9 c 4.6 4 13.4 0 12.4 -6.4 C 163 419 157.7 415.1 153 416.5 M 474.7 360 c 1.7 0.5 3.4 1 5 1.6 c -1.1 1 -0.9 1.5 0.7 1.5 c 0.4 -0.1 1.1 -0.2 1.5 -0.2 l 0.2 0.6 c 1.1 3.8 5.2 6.3 5.2 10.5 c 0.7 13.2 -11.2 24.4 -23.9 25.3 c 3.4 -2.8 7.7 -4.5 10.5 -8.1 c 4.7 -5.9 7 -13.9 5.1 -21.3 C 478.2 366.4 476.3 363.2 474.7 360 M 896.3 410.2 c 11.4 5.1 22.9 11.1 35.8 11.1 c -7.6 9.5 -18.6 17.8 -31.2 17.6 C 901.2 429.2 899 419.6 896.3 410.2 M 728.8 545.5 c 1.5 2.3 2.9 4.6 4.3 6.9 c -2.5 0.9 -5.1 1.5 -7.8 2 C 726.3 551.4 727.5 548.4 728.8 545.5 M 723.8 557.9 c 7.9 0.2 15.3 -2.8 22.9 -4.1 c 15.8 0.5 29 14.9 30.5 30.2 c 1 9.7 -2.9 19 -5.3 28.2 c -2 7.7 -5.9 15 -6.7 23 c -0.5 4.2 1 8.2 1.4 12.3 c -2.6 -3 -7.4 -5.7 -6 -10.4 c 2.1 -8.9 2.2 -18.3 -1.1 -26.9 c -4.2 -12.6 -14.9 -21.7 -26.3 -27.8 c -5.8 -3.3 -12.4 -4.2 -18.8 -5.5 C 717.7 570.6 720.9 564.3 723.8 557.9 M 237.5 626 c 21.6 24.4 46.5 46.2 74.9 62.3 c 12.9 7.4 26.3 13.9 40.3 19.3 c -5.3 3.8 -9.9 8.4 -14.3 13.3 c -1.7 0 -3.4 0 -5 0.1 c -0.9 8 -1.3 16.2 -4.1 23.9 c -2 5.8 -6.1 10.5 -9.5 15.4 c -10.3 14 -25.7 23.2 -41.8 29.3 c -7.3 2.6 -14.6 5.7 -22.4 5.8 c -12.1 0.2 -24.1 -2.1 -36 -3.9 c -11.1 -2.1 -22.6 -5.2 -33.8 -1.9 c -5.9 2 -11.3 5.4 -17 7.9 c -6.9 3.1 -12.5 8.3 -18.2 13 c -0.8 -7.8 -0.8 -15.9 2 -23.3 c 1.9 -5.2 5.3 -10.1 10.3 -12.8 c 18.1 -10.3 39.6 -12.5 57.3 -23.5 c 9.4 -6.3 19.3 -12.9 25.1 -22.9 c 3.6 -6.7 5.1 -14.3 6.5 -21.8 c 1.9 -9.3 -0.5 -18.7 -1.6 -28 c -0.3 -2.9 -2.2 -5.2 -4.3 -7.1 c -3.1 5 -4.9 11.1 -9.8 14.7 c -4 3 -8.3 5.6 -12.6 8.4 c -9.9 6 -21.7 7.8 -33 9.6 c -14.2 2.2 -28.8 4.2 -43.1 2 c 3 -2.5 7 -3.5 10.4 -5.3 c 2 -0.9 3.8 -2.3 5.9 -2.9 c 10.7 3.1 22.5 2.2 32.4 -2.8 c 9.4 -4.6 16.8 -12.5 20.9 -22.1 c 2.6 -6.6 9.3 -10.2 13 -16 C 236.2 647.6 237.8 636.5 237.5 626 M 272 688.4 c -3.3 0.7 -5.6 4.3 -4.2 7.6 c 1.5 4.6 9.2 4 10.3 -0.6 C 279.6 691.8 275.9 687.4 272 688.4 M 284 709.4 c -5.2 0.9 -9.7 4.6 -11.2 9.7 c -3.4 8.4 4.1 18.2 12.9 18.1 c 7.6 0.5 14.4 -6.6 14.2 -14.1 C 299.9 715.1 291.9 708.1 284 709.4 M 260 751.3 c -2.9 1.3 -4.8 5 -3.8 8.1 c 0.5 3.2 3.7 4.9 6.5 5.4 c 4.4 0.1 8.2 -4.4 7.1 -8.8 C 269 751.7 263.8 749.7 260 751.3 M 660.9 646.3 c 3.4 -3.2 6.4 -6.8 10 -9.7 c 1.8 5.5 -1.9 10.4 -3.1 15.6 c -2.8 10.7 -0.7 22.1 3.7 32.1 c -2.6 -1.3 -5.1 -2.9 -7.1 -5 c -3.2 -3.1 -4.9 -7.5 -8.5 -10.3 c -1.2 3.2 -1.1 6.8 -2.3 10 c -3.3 5.6 -8.7 9.7 -11.4 15.6 c -7.3 15 -13.4 31.5 -11.9 48.5 c 0.4 8.2 3.8 15.8 7.5 23 c 3 5.6 5.3 11.7 9.6 16.4 c 3.8 4.2 7.8 8 11.8 12.1 c 6.6 6.5 15.4 11.2 19.7 19.8 c -5.4 -2.3 -10 -6.7 -16 -7.5 c -4.4 -0.5 -8.8 -0.5 -13.3 -1.1 c -17.6 -2.4 -35.7 -0.6 -52.9 -5.8 c -8.8 -2.8 -17.8 -7 -23.1 -14.8 c -5.6 -8.6 -8.9 -18.7 -8.8 -29 c 0 -15.3 -3.8 -30.8 -12 -43.9 C 593.1 698.5 630.8 676.4 660.9 646.3 M 785.8 677.9 c 2.9 1.8 5.8 3.6 8.1 6.2 c -2.7 0.1 -5.4 0 -8 -0.2 C 785.9 681.9 785.9 679.9 785.8 677.9 M 414.8 724.2 c 6 1.2 12.3 1.1 18.3 2.6 c 11.3 10.6 11.3 31.8 -1.4 41.4 c -4 3 -8.4 5.6 -13.2 7.1 c 1.1 -4.7 2.8 -9.3 3.3 -14.2 c 0.8 -7.1 -0.5 -14.3 -1.6 -21.3 C 419.2 734.3 417.4 729 414.8 724.2 M 441.4 726.9 c 10.1 0.1 20.1 0.8 30.2 0 c 0.1 11.1 3.1 22.4 10.2 31.1 c 3.7 5.2 9.5 8.1 14.2 12.3 c -4.2 -0.7 -8.2 -2.3 -12.4 -2.6 c -6 -0.6 -11.9 1.5 -17.9 0.4 c -7.6 -1.2 -14.7 -5.4 -19.7 -11.3 c 0.6 -5.2 1.7 -10.5 0.6 -15.8 C 445.9 736 443.3 731.5 441.4 726.9 M 499.5 771.9 c 7.3 1.6 14.8 2.7 22.3 2.3 c 3.2 5.9 6.6 12 6.8 18.8 c 0.2 4.8 -2 9.1 -4.1 13.3 c -1.4 -1.9 -2.1 -4.1 -2.8 -6.3 c -2.5 -7.4 -6.6 -14.3 -12 -19.9 C 506.5 777 502.7 774.9 499.5 771.9 L 499.5 771.9 z" stroke-linecap="round" />
</g>
		<g transform="matrix(1 0 0 1 -16.02642139 2.75)" id="Layer_1"  >
<path style="stroke: none; stroke-width: 1; stroke-dasharray: none; stroke-linecap: butt; stroke-dashoffset: 0; stroke-linejoin: miter; stroke-miterlimit: 4; fill: rgb(255,209,66); fill-rule: nonzero; opacity: 1;"  transform=" translate(-461.22357861, -421.6)" d="M 209.9 60.7 c 4.6 2.9 9 6.9 10.5 12.3 c 4.4 15.7 1.3 32.3 5.1 48 c 1.7 6.8 4.4 13.4 7.6 19.6 c 3.1 5.7 6.6 11.4 12.2 14.9 c 11.4 7.2 23.9 13.4 37.5 14.9 c 5.3 0.6 10.5 3 15.8 1.2 c 0 -0.4 0 -1 0 -1.4 c -3.6 -3.7 -8.5 -6.4 -10.7 -11.3 c -4.2 -9.4 -7.6 -19.6 -6.7 -30 c 1.4 -18.2 3.7 -36.9 12 -53.4 c 1.9 1.5 1.7 4.1 2.2 6.3 c 2 12.4 6.7 24.8 15.1 34.3 c 8.5 8.9 19.2 16 31.2 18.8 c 5.9 1.5 12 0.4 18 1.2 c 0.1 1.6 0.3 3.3 0.4 4.9 c 5.8 -1.9 11.3 -4.8 16.9 -7.1 c 7.5 -1.9 16.1 -0.6 22.2 4.3 c 4.5 3.5 9.4 6.6 13 11 c 2.6 4 5.6 7.8 8.7 11.5 c -46.3 6.5 -90.8 24.4 -128.9 51.5 c -2.3 1.6 -4.5 3.6 -7.2 4.6 c -16.9 0.7 -34.2 -2.5 -48.8 -11.3 c -8.9 -4.9 -16 -12.2 -22.8 -19.5 c 4.1 -1.7 8.6 -3.5 10.7 -7.7 c 3.9 -7.2 -0.7 -17.3 -8.9 -18.7 c -5.1 -1.3 -10 1.6 -13.7 4.9 c -3.5 -8 -5.1 -16.8 -5.6 -25.5 c -0.6 -7.7 1.3 -15.3 0.6 -23 c -0.4 -5.7 -0.9 -11.5 -0.6 -17.2 c 0.7 -4.1 1.7 -8.2 2.3 -12.3 C 200.9 77.5 204.6 68.6 209.9 60.7 M 209.8 131.2 c -3.2 1 -2.8 5.4 -0.8 7.4 c 1.6 2.3 5.7 2.2 6.8 -0.5 C 217.8 134.5 213.7 129.6 209.8 131.2 M 234 187.5 c -5.8 1.9 -7.1 10.8 -2 14.2 c 4.6 3.8 12.6 0.3 12.9 -5.7 C 245.8 190.4 239.4 185.5 234 187.5 M 660.1 64.7 c 3.2 4.3 5 9.4 7.8 14 c 7.5 13.1 17.2 25.2 21.2 40 c 2.7 9.8 4.2 20.8 -0.3 30.4 c -4.6 8.9 -11.3 16.8 -19.7 22.3 c -10.4 6.9 -18.7 16.5 -24.9 27.2 c -2.2 3.2 -2.8 7.1 -1.4 10.7 c 2.2 -1.3 3.3 -3.7 4.7 -5.6 c 7 5.3 15.5 8.1 24 9.6 c 10.6 2.8 22.3 -0.8 30.2 -8.2 c 7.6 -7.2 9.9 -18.3 17.8 -25.2 c 4.3 -4 10.4 -5.1 16 -4.9 c -6.3 8 -11.8 16.9 -13.9 27 c -3 12.4 1.2 25.9 9.7 35.3 c 3.8 4.2 7.1 9.6 7 15.4 c -1.1 2.3 -2.5 4.6 -2.6 7.2 c -1.3 17.2 -9.9 33.9 -23.5 44.6 c -9 -14.4 -18.1 -28.9 -29.2 -41.8 c -30.7 -37.1 -70.9 -66.1 -115.4 -84.5 c 6.3 -15.4 18.1 -28.8 33.3 -35.8 c 7 -3.1 12.7 -8.4 19.7 -11.4 c 3.5 -1.7 7.5 -2.8 10.2 -5.8 c 2.5 -2.9 4.5 -6.1 7.3 -8.8 c 2.9 -3.1 6.6 -5.8 7.9 -10 c 2 -6.1 3.2 -12.5 5.5 -18.6 C 654.3 80.1 656.4 72.1 660.1 64.7 M 625.9 130.5 c -6.3 2 -11.2 8 -11.5 14.6 c -0.6 8 5.3 15.8 13.2 17.3 c 9.8 2.3 20.4 -6.3 19.8 -16.4 C 647.8 135.4 636 126.7 625.9 130.5 M 605 167.4 c -5.7 0.9 -7.1 9.6 -2 12.3 c 4.1 2.7 10.2 -0.8 10 -5.6 C 613.3 169.9 609 166.6 605 167.4 M 309.5 206.8 c 53.6 -33.6 118.5 -47.6 181.3 -41.4 c 3.5 0.6 7.3 0 10.4 1.9 c -4.5 0.4 -9.1 0 -13.6 -0.5 c -53 -3.4 -107.1 9.2 -152.9 36.3 c -46 26.7 -83.2 67.8 -106.2 115.6 c -7 0 -14 0.1 -21 0.2 c 8.3 -17.8 19.3 -34.3 31.4 -49.8 C 258.4 244.3 282.8 223.6 309.5 206.8 M 221.4 229.2 c 3.8 4.1 7.9 8 9.9 13.3 c 3.8 8.4 3.1 18 0.4 26.6 c -2.7 4.7 -5.9 9.2 -9.7 13 c -4.8 2.8 -9.8 5.4 -15.3 6.2 c -7 1.1 -14.1 0.5 -21 -0.3 c -5 -0.7 -9.8 0.9 -14.6 1.5 c -11.1 1.1 -22.5 -3.5 -30 -11.6 c -5.5 -5.6 -8.1 -13.3 -10.3 -20.7 c 0.1 -2.2 -0.5 -5.4 1.2 -6.8 c 8 5.8 15 13.5 24.5 17.1 c 8.2 3.6 17.6 0.8 24.6 -4.2 c 8.9 -6.9 12.9 -18.2 21.9 -25.1 C 208 233.4 215.1 232 221.4 229.2 M 95.8 323.1 c 16.4 -7.3 35.6 -0.9 48.3 10.6 c 9.1 8.3 20.3 14.1 31.9 18.1 c 3.4 1.3 7.1 1.4 10.7 1.6 c -5.7 17 -9.7 34.5 -12.6 52.2 c -3.5 -6.8 -6.4 -14 -10.1 -20.7 c -1.2 -3 -2.2 -6.3 -4.5 -8.6 c -2.2 -2.2 -5 -3.6 -7.5 -5.5 c -18 -18.3 -45 -27 -70.3 -23.5 c -9.4 1.1 -18.2 4.7 -27 7.9 C 66.8 342.9 79.3 329.7 95.8 323.1 M 200 334.4 c 1.7 -3.7 2.9 -7.6 5.3 -10.9 c 4.2 7.3 8.3 14.5 12.2 22 c -4 10.3 -7.2 21 -9.1 31.8 c -1.8 4.2 -3.7 8.5 -4.9 13 c -1.6 1.3 -3.1 3 -4.4 4.6 c 1.1 -0.3 2.2 -0.7 3.3 -1.1 c -1 7.3 -0.8 14.6 0.4 21.8 c -2 19.8 -0.8 39.8 1.9 59.5 c 10.5 73.7 53.5 142 115.3 183.6 c 28.5 19.4 60.9 33.1 94.7 40.2 c 41.8 8.9 85.8 7.6 127.1 -3.7 c 33.6 -9.1 65.3 -25 92.9 -46.2 c 55.4 -42 92.8 -106.6 102.5 -175.4 c 1.5 -10.8 1.9 -21.8 3 -32.7 c 0.5 9.7 -0.5 19.4 -1 29.1 c -0.5 11.8 -2.6 23.5 -5.1 35 c -1.1 5.4 -2.9 10.7 -3.5 16.2 c -3.6 15.8 -10.3 30.7 -17.4 45.2 c -13.7 28.3 -33.1 53.5 -55.6 75.3 c -48.5 48.2 -115.8 75.9 -183.9 78.9 c -45.2 2.1 -91 -5.9 -132.5 -24.3 c -29.1 -12.7 -55.6 -30.9 -78.8 -52.4 c -19.5 -18.6 -36 -40.3 -49.4 -63.7 c -19.8 -34.9 -31.6 -74.3 -34.3 -114.3 C 175.7 421.4 182.3 375.7 200 334.4 M 828.3 357.6 c 13.8 1 27.1 6.5 38.4 14.5 c 6 4 10.8 9.4 16 14.3 c 3.4 4.8 4.7 10.7 7.9 15.7 c 1.7 2.9 4.2 5.2 5.8 8.2 c 2.7 9.3 4.9 19 4.5 28.7 c -14.8 -3.9 -26.5 -14.2 -39.9 -21.1 c -6 -3.2 -12.6 -5 -19.2 -6.4 c -7.5 -1.6 -15.5 -2.4 -23 -0.2 c -7.7 2.1 -14.6 6.5 -21.4 10.5 c -7.7 4.7 -13.6 11.7 -19.8 18 c -2.5 2.4 -4.6 5.3 -5.4 8.8 c 5.5 -0.8 10.8 -3.7 16.5 -2.6 c 7.4 1.3 15 2.9 21.8 6.3 c 5 2.4 9.1 6.3 13.3 9.8 c 10.8 9.1 21.1 19.2 28.8 31.1 c 0.9 1.3 1.3 2.9 1.8 4.5 c -12.1 -5.4 -24.9 -11.1 -38.6 -9.9 c -13.6 1.5 -27.4 6.3 -37.5 15.9 c -6.1 6.2 -10.8 13.7 -14.3 21.7 c -3.1 6.8 -6.2 13.9 -11.9 19 c -5.3 4.6 -12.3 6.5 -18.9 8.1 c -1.4 -2.4 -2.8 -4.7 -4.3 -6.9 c 1 -4.7 3.1 -9.1 4.5 -13.7 c 13.3 -40.3 17.8 -83.6 12.2 -125.8 c 0 -1.5 -0.7 -3.1 -0.1 -4.5 c 4.3 -6.5 8.2 -13.4 13.8 -18.8 c 10.5 -11.2 24.1 -19.9 39.4 -22.8 c -1.8 6.3 -1.4 13.9 3.6 18.6 c 6.4 7 18.9 6.4 24.7 -1.1 C 831.7 371.9 831.3 363.8 828.3 357.6 M 786.1 389.5 c -6.1 2.3 -7.8 11.6 -2.3 15.5 c 5.1 4.8 14.3 1.1 14.9 -5.8 C 799.8 392.5 792.2 386.6 786.1 389.5 M 838 389.4 c -2.8 1.6 -2.6 6.7 0.7 7.7 c 2.6 1.2 6.1 -1.1 5.9 -4 C 844.7 389.9 840.7 387.5 838 389.4 M 21.5 375.4 c 2.9 -1.3 5.9 -2.2 9.1 -2.7 c -0.2 1.1 -0.4 2.2 -0.6 3.3 c 1.5 0.1 2.9 0.1 4.4 0.2 c -0.1 0.3 -0.3 0.8 -0.4 1.1 C 29.9 375.8 25.5 376.8 21.5 375.4 M 670.9 636.2 c 16.9 -17.9 31.3 -38 43.6 -59.3 c 6.4 1.3 13.1 2.2 18.8 5.5 c 11.4 6.1 22.1 15.2 26.3 27.8 c 3.3 8.6 3.2 18 1.1 26.9 c -1.5 4.7 3.3 7.4 6 10.4 c 4 7.8 6.5 16.6 12.4 23.3 c 2.1 2.6 5.1 4.3 6.9 7.2 c 0.1 2 0.1 4 0.1 6 c -17.4 -1.5 -35.2 -5.3 -50.2 -14.7 c -8.7 -6.2 -17 -13.2 -23.5 -21.7 c -3.6 -4.7 -8 -8.8 -11.3 -13.7 c -0.2 -2.3 0.8 -4.7 1.1 -7 c -6.4 0.8 -10.1 6.7 -12.8 12 c -4 7.8 -7.6 16.5 -5.9 25.4 c 1.1 5.3 1.5 11.5 6.1 15 c 4.9 4.1 12.1 6.8 13.3 13.9 c -10.2 -3.9 -22 -2.6 -31.3 -8.8 c -4.4 -10 -6.6 -21.3 -3.7 -32.1 c 1.3 -5.2 4.9 -10.1 3.1 -15.6 L 670.9 636.2 M 184.9 587.3 l 0.5 0 c 9.2 -0.7 18.5 0.5 27.1 3.9 c 5.4 7 9.8 14.8 15.2 21.8 c 3.1 4.4 7.1 8.3 9.7 13 c 0.2 10.5 -1.3 21.6 -7.4 30.5 c -3.7 5.8 -10.4 9.4 -13 16 c -4 9.6 -11.5 17.5 -20.9 22.1 c -9.9 5 -21.7 5.9 -32.4 2.8 c 6.5 -5.1 14 -9.3 19.1 -16 c 6.8 -9.2 12.2 -19.8 13.2 -31.3 c 0.6 -7 -2 -13.6 -4.2 -20 c -3.3 -9.4 -10.2 -17.7 -10.6 -28 C 180.7 596.8 182.7 591.9 184.9 587.3 M 162.2 599.3 c 4.4 -4.3 9.7 -8 15.8 -9.4 C 174.8 595.5 168.3 598.4 162.2 599.3 M 338.5 720.8 c 4.4 -4.8 9 -9.5 14.3 -13.3 c 20.1 7.5 40.9 13.2 62.1 16.6 c 2.6 4.8 4.4 10.2 5.3 15.6 c 1.1 7 2.5 14.1 1.6 21.3 c -0.5 4.9 -2.1 9.5 -3.3 14.2 l -0.1 0.6 c -7.3 3.2 -15 6.3 -23 6.7 c 3.8 -7.9 8.9 -15.5 10.2 -24.4 c 0.8 -6.8 -3.8 -13.1 -9.6 -16.3 c -9.6 -5.8 -21.2 -5.2 -31.9 -7.3 c -9.4 -1.8 -19.1 -5.3 -25.6 -12.6 L 338.5 720.8 M 534 717.5 c 4.5 -1.1 8.9 -2.7 13.5 -3.5 c 0.7 1.3 1.4 2.5 2.2 3.8 c -8.3 2.4 -15.1 8 -21.2 13.9 c -7 6.5 -11.5 15.7 -11.4 25.3 c 0.1 6 2.4 11.7 4.7 17.2 c -7.5 0.4 -15 -0.7 -22.3 -2.3 c -1.3 -0.3 -2.5 -0.8 -3.5 -1.6 c -4.6 -4.2 -10.4 -7.2 -14.2 -12.3 c -7.1 -8.7 -10.1 -20 -10.2 -31.1 C 492.6 726 513.6 722.9 534 717.5 L 534 717.5 z" stroke-linecap="round" />
</g>
		<g transform="matrix(1 0 0 1 4.29120752 28.34715004)" id="Layer_1"  >
<path style="stroke: none; stroke-width: 1; stroke-dasharray: none; stroke-linecap: butt; stroke-dashoffset: 0; stroke-linejoin: miter; stroke-miterlimit: 4; fill: rgb(255,213,3); fill-rule: nonzero; opacity: 1;"  transform=" translate(-481.54120752, -447.19715004)" d="M 625.9 130.5 c 10.1 -3.8 21.8 4.9 21.6 15.6 c 0.6 10.1 -10 18.7 -19.8 16.4 c -7.9 -1.5 -13.9 -9.3 -13.2 -17.3 C 614.8 138.5 619.7 132.5 625.9 130.5 M 209.8 131.2 c 3.9 -1.6 8 3.3 6 6.9 c -1.1 2.8 -5.2 2.9 -6.8 0.5 C 207 136.6 206.6 132.3 209.8 131.2 M 201.3 164.5 c 3.7 -3.3 8.6 -6.1 13.7 -4.9 c 8.2 1.4 12.8 11.5 8.9 18.7 c -2 4.2 -6.6 6 -10.7 7.7 c -4 -1 -8.4 -2.1 -11.1 -5.4 C 198.4 176.1 198.8 169.5 201.3 164.5 M 334.7 203.1 c 45.8 -27.1 99.9 -39.7 152.9 -36.3 c 4.5 0.4 9.1 0.9 13.6 0.5 c 11.6 0.6 23 3.4 34.3 6.1 c 32.9 8.6 64.2 23.2 91.8 43.1 c 27.7 20 51.8 45 70.6 73.6 c 17.9 27 30.6 57.3 37.8 88.9 c 9.4 40.7 9 83.5 -0.1 124.2 c -1.5 6.1 -2.3 12.5 -4.9 18.2 c 0.6 -5.5 2.4 -10.8 3.5 -16.2 c 2.5 -11.5 4.6 -23.2 5.1 -35 c 0.5 -9.7 1.5 -19.4 1 -29.1 c -1.1 10.9 -1.5 21.8 -3 32.7 c -9.6 68.8 -47.1 133.4 -102.5 175.4 c -27.6 21.2 -59.3 37.1 -92.9 46.2 c -41.3 11.3 -85.2 12.6 -127.1 3.7 c -33.8 -7.1 -66.1 -20.8 -94.7 -40.2 c -61.7 -41.6 -104.8 -109.9 -115.3 -183.6 c -2.7 -19.7 -3.9 -39.7 -1.9 -59.5 c 2.6 7.6 5.7 15.1 11.1 21.2 c 6.5 7.5 15.2 13.8 25.1 15.7 c 4.3 6.4 8.8 13 10.2 20.8 c 1.1 6.5 2 13 4 19.3 c 7.1 23.4 18.1 45.4 30.5 66.4 c 6.8 11.8 13.6 23.9 23.1 33.9 c 9.5 10.9 21.1 19.7 32.1 28.9 c 8.9 7.3 19.2 12.4 29.5 17.5 c 7.6 3.2 15 7.2 23.2 9 c 9.6 2.2 19.4 4.3 29.2 5.4 c 8.6 0.9 17.2 0.2 25.8 -0.2 c 13.8 -0.8 27.7 -1.8 41 -5.7 c 9.4 -2.9 19.1 -4.9 28.3 -8.5 c 9.8 -3.6 18.4 -9.6 27.4 -14.8 c 10 -5.9 19.3 -13 29.6 -18.5 c 1.6 7.3 -1.8 15.6 2.8 22.2 c 5.5 -7.2 5.9 -17.4 2.2 -25.4 c -0.9 -1.8 -3.2 -2.7 -5.1 -2 c -8.5 2.3 -15.1 8.4 -22.7 12.4 c -2.7 -25.8 -4 -51.8 -3.9 -77.8 c 36.2 -10.6 67.3 -33.9 92.2 -61.7 c 11.4 -11.8 20.8 -25.5 28 -40.2 c 0.6 0.8 1.4 1.3 2.5 1 c 14.8 -1.7 28.8 -9.9 36.8 -22.6 c 8.3 -11.5 10 -26.4 7.4 -40 c -2.5 -10.6 -8.3 -20.4 -16.6 -27.5 c -5.8 -4.8 -12.6 -8.3 -19.8 -10.6 c 2 -4.9 4.5 -9.6 6.2 -14.6 c 3.1 -8.6 6.9 -17 9.9 -25.7 c -5 -0.8 -10 0.6 -14.9 1 c -28.4 2.8 -56.5 8.3 -85.1 8.5 c -8.3 0.2 -16.6 -0.9 -25 -0.5 c -14.8 0.4 -29.7 0.8 -44.4 -0.7 c -14.2 -0.9 -28.4 1.4 -42.6 1.1 c -3.3 -4.7 -7.1 -10.1 -13.2 -11.3 c -8.2 -1.9 -16.8 0.4 -24.1 4.4 c -4.8 2.6 -7.8 8.4 -13.6 8.9 c -17 2.7 -34.4 1.4 -51.3 4.7 c -18.3 3.7 -36.9 4 -55.4 6.3 c -31.3 5.2 -63.1 3.1 -94.7 2.9 C 251.5 270.9 288.7 229.9 334.7 203.1 M 518 246.9 c 7.3 2.9 15.2 2.5 22.7 4.2 c 3.9 0.8 7.8 1.5 11.6 2.4 c 10 2.4 19.1 7.1 28.3 11.6 c 4.4 2 7.8 5.8 12.4 7.5 c 1 -6.1 0.8 -12.5 -1.4 -18.4 c -3.6 -10.7 -11 -19.4 -18.6 -27.5 c -4.1 -4 -8 -8.4 -13.4 -10.6 c -10.5 -4.8 -22.3 -5.4 -33.3 -8.6 C 522.1 220.2 518 233.4 518 246.9 M 347.9 224.3 c -5.1 2.1 -10.3 4.7 -14 9 c -6.3 7.1 -12.4 14.6 -17 23.1 c -5.7 10.1 -8.7 22.1 -5.6 33.5 c 3 -0.7 5 -3.1 7.3 -4.9 c 3.8 -3.3 8.3 -5.7 12.6 -8.4 c 5.3 -3.1 10.7 -6.3 16.4 -8.6 c 5.4 -2.3 11.1 -3.5 16.6 -5.3 c 7.7 -2.4 15.9 -2.7 23.2 -6.4 c -1.3 -14.3 -6.8 -27.8 -12.4 -40.8 C 366.2 218.9 356.7 220.7 347.9 224.3 M 605 167.4 c 4 -0.8 8.3 2.4 8 6.6 c 0.1 4.8 -6 8.4 -10 5.6 C 598 177 599.3 168.4 605 167.4 M 234 187.5 c 5.3 -2 11.8 2.8 10.9 8.5 c -0.3 6 -8.2 9.5 -12.9 5.7 C 226.9 198.4 228.2 189.4 234 187.5 M 441.8 307.2 c 5.2 -4.3 11.1 -8.7 18 -9.5 c 6.6 -0.1 11.5 5.1 15.7 9.6 c 6.1 6.3 5.7 15.7 7.6 23.7 c 3.4 13.5 9.1 26.4 16.5 38.2 c 5.8 9.5 12.1 19.1 21.1 25.8 c 13.8 10.3 30.9 15.3 47.9 16.8 c 16.2 1.8 32.4 -3 46.6 -10.6 c 1.5 7.1 6.2 13.1 11.1 18.3 c 8.6 9.2 21 14.3 33.4 15.4 c -6.3 11.9 -14.4 22.9 -23.7 32.6 c -10 10.6 -20.3 21.1 -32 29.9 c -16.1 12.5 -33.8 23 -53 30.1 c -15.3 5.8 -31.6 7.6 -47.4 11.5 c -14.8 3.7 -30.1 4.4 -45.2 5.8 c -15.6 0.8 -31.3 2.5 -46.9 1 c -20.3 -2.1 -39.8 -8.3 -59.2 -14.3 c -17.3 -6.1 -33.8 -14.1 -49.4 -23.6 c -7.8 -4.7 -15.4 -10 -23.2 -14.6 c -4.5 -2.7 -8.7 -6 -12 -10.1 c -7.3 -8.9 -15.2 -17.5 -20 -28.1 c 15.2 1 31.1 -4.1 41.9 -15.2 c 6.6 -6.2 10.5 -14.6 13.5 -23 c 9.6 2.7 19.6 4.4 29.7 4 c 7.2 0 14.3 -1.9 21.3 -3.5 c 15.1 -3.7 29.6 -10.4 41.2 -20.8 c 7.4 -6.9 12.7 -15.7 17.3 -24.5 c 8.1 -15.1 14.3 -31.7 14.8 -49 c 0.1 -1.9 0.4 -4 1.9 -5.4 C 433 313.7 437.6 310.7 441.8 307.2 M 474.7 360 c 1.6 3.2 3.5 6.4 4.2 9.9 c 1.9 7.4 -0.4 15.5 -5.1 21.3 c -2.7 3.6 -7 5.3 -10.5 8.1 c -6.5 1.5 -13.3 1.9 -19.7 -0.3 c -7.5 -2.1 -13.7 -8.4 -15.8 -15.9 c -1.1 -3.7 -0.6 -7.6 -0.6 -11.4 c -4.5 5.5 -3.7 13.8 0.1 19.4 c 5 7.2 13.6 11.2 22.1 12.6 c 11 1.8 23 0 32.3 -6.5 c 5.6 -3.9 10.1 -10.2 10.1 -17.2 c 0.1 -6.9 -4.5 -12.7 -9.9 -16.6 l -0.2 -0.6 c -0.4 0.1 -1.1 0.2 -1.5 0.2 c -0.2 -0.4 -0.5 -1.1 -0.7 -1.5 C 478.1 361 476.4 360.5 474.7 360 M 208.4 377.4 c 1.9 -10.9 5.1 -21.6 9.1 -31.8 c 3 4.7 5.8 9.6 8.9 14.2 C 219 363.9 213.4 370.5 208.4 377.4 M 809.5 350.9 c 6.9 -2.4 14.5 1.2 18.8 6.7 c 3 6.2 3.5 14.3 -1.3 19.8 c -5.8 7.5 -18.3 8.1 -24.7 1.1 c -5 -4.8 -5.4 -12.3 -3.6 -18.6 C 801.1 355.7 804.7 352.1 809.5 350.9 M 120.9 361.5 c 3.4 -1.9 6.9 2.9 5 5.9 c -1.5 2.7 -5.9 2.3 -7 -0.5 C 117.8 364.8 119 362.3 120.9 361.5 M 139.1 374.4 c 3.7 -2.7 8.5 -3 12.9 -3.7 c 2.5 1.9 5.3 3.3 7.5 5.5 c 2.3 2.3 3.3 5.6 4.5 8.6 c -0.2 3.6 -0.7 7.4 -3 10.4 c -4.3 6.7 -14 8.5 -20.6 4.1 C 131.6 394.4 131.3 380.5 139.1 374.4 M 786.1 389.5 c 6.1 -2.9 13.8 3 12.6 9.7 c -0.5 6.9 -9.8 10.5 -14.9 5.8 C 778.3 401.1 779.9 391.8 786.1 389.5 M 838 389.4 c 2.7 -1.8 6.7 0.5 6.6 3.7 c 0.1 2.9 -3.3 5.1 -5.9 4 C 835.4 396 835.2 391 838 389.4 M 153 416.5 c 4.7 -1.3 10 2.5 9.8 7.5 c 1 6.4 -7.8 10.4 -12.4 6.4 C 145.3 427 147.2 417.9 153 416.5 M 272 688.4 c 3.9 -1 7.6 3.4 6.1 7.1 c -1.1 4.6 -8.8 5.2 -10.3 0.6 C 266.4 692.8 268.7 689.1 272 688.4 M 284 709.4 c 8 -1.3 15.9 5.6 15.9 13.7 c 0.2 7.5 -6.5 14.7 -14.2 14.1 c -8.8 0.1 -16.3 -9.8 -12.9 -18.1 C 274.3 714 278.8 710.3 284 709.4 M 260 751.3 c 3.9 -1.7 9.1 0.3 9.9 4.7 c 1.1 4.4 -2.6 8.9 -7.1 8.8 c -2.9 -0.6 -6.1 -2.3 -6.5 -5.4 C 255.2 756.3 257.1 752.6 260 751.3 L 260 751.3 z" stroke-linecap="round" />
</g>
		<g transform="matrix(1 0 0 1 -74.55 -284.4)" id="Layer_1"  >
<path style="stroke: none; stroke-width: 1; stroke-dasharray: none; stroke-linecap: butt; stroke-dashoffset: 0; stroke-linejoin: miter; stroke-miterlimit: 4; fill: rgb(253,203,61); fill-rule: nonzero; opacity: 1;"  transform=" translate(-402.7, -134.45)" d="M 399.4 130.9 c 1.5 0.3 3 0.6 4.4 1.1 c 1.3 1.7 1.5 4 2.2 6 C 403.1 136.4 400.2 134.2 399.4 130.9 L 399.4 130.9 z" stroke-linecap="round" />
</g>
		<g transform="matrix(1 0 0 1 -25.3965201 -170.2)" id="Layer_1"  >
<path style="stroke: none; stroke-width: 1; stroke-dasharray: none; stroke-linecap: butt; stroke-dashoffset: 0; stroke-linejoin: miter; stroke-miterlimit: 4; fill: rgb(221,125,39); fill-rule: nonzero; opacity: 1;"  transform=" translate(-451.8534799, -248.65)" d="M 518 246.9 c 0 -13.6 4.2 -26.7 8.4 -39.5 c 11 3.3 22.8 3.8 33.3 8.6 c 5.4 2.2 9.3 6.7 13.4 10.6 c 7.6 8 15 16.8 18.6 27.5 c 2.1 5.9 2.4 12.3 1.4 18.4 c -4.6 -1.7 -8 -5.5 -12.4 -7.5 c -9.2 -4.4 -18.3 -9.2 -28.3 -11.6 c -3.9 -0.9 -7.8 -1.5 -11.6 -2.4 C 533.2 249.5 525.2 249.8 518 246.9 M 347.9 224.3 c 8.8 -3.6 18.2 -5.3 27.1 -8.8 c 5.6 13.1 11.1 26.5 12.4 40.8 c -7.2 3.7 -15.5 4 -23.2 6.4 c -5.5 1.8 -11.2 3 -16.6 5.3 c -5.8 2.3 -11.1 5.4 -16.4 8.6 c -4.3 2.6 -8.8 5 -12.6 8.4 c -2.3 1.8 -4.3 4.2 -7.3 4.9 c -3.1 -11.4 -0.1 -23.5 5.6 -33.5 c 4.6 -8.4 10.6 -15.9 17 -23.1 C 337.6 229 342.8 226.4 347.9 224.3 L 347.9 224.3 z" stroke-linecap="round" />
</g>
		<g transform="matrix(1 0 0 1 -28.95 -63.10941648)" id="Layer_1"  >
<path style="stroke: none; stroke-width: 1; stroke-dasharray: none; stroke-linecap: butt; stroke-dashoffset: 0; stroke-linejoin: miter; stroke-miterlimit: 4; fill: rgb(0,0,0); fill-rule: nonzero; opacity: 1;"  transform=" translate(-448.3, -355.74058352)" d="M 443.4 295.9 c 7.3 -4 15.9 -6.3 24.1 -4.4 c 6 1.1 9.9 6.5 13.2 11.3 c 14.2 0.3 28.4 -2 42.6 -1.1 c 14.8 1.5 29.6 1.1 44.4 0.7 c 8.3 -0.4 16.6 0.7 25 0.5 c 28.6 -0.2 56.7 -5.7 85.1 -8.5 c 5 -0.4 9.9 -1.8 14.9 -1 c -3 8.7 -6.8 17.1 -9.9 25.7 c -1.7 5 -4.2 9.7 -6.2 14.6 c -3.2 6.4 -6.8 12.6 -10.5 18.7 c -4.6 5.8 -8.5 12 -13.5 17.4 c -5.5 5.9 -11.4 11.3 -16.8 17.2 c -6.1 5.6 -13.3 10 -20.5 14 c -14.2 7.6 -30.4 12.4 -46.6 10.6 c -17 -1.5 -34 -6.5 -47.9 -16.8 c -9 -6.7 -15.4 -16.3 -21.1 -25.8 c -7.4 -11.8 -13.1 -24.7 -16.5 -38.2 c -1.9 -8 -1.5 -17.4 -7.6 -23.7 c -4.2 -4.4 -9.1 -9.7 -15.7 -9.6 c -6.9 0.8 -12.8 5.1 -18 9.5 c -4.1 3.6 -8.8 6.5 -12.6 10.4 c -1.5 1.4 -1.8 3.5 -1.9 5.4 c -0.4 17.3 -6.7 33.9 -14.8 49 c -4.7 8.9 -9.9 17.7 -17.3 24.5 c -11.7 10.4 -26.2 17.1 -41.2 20.8 c -7 1.6 -14.1 3.5 -21.3 3.5 c -10 0.4 -20.1 -1.3 -29.7 -4 c -12.9 -4 -25.8 -9.2 -36.1 -18 c -7.6 -5.8 -15.7 -11.1 -22.2 -18.2 c -1.1 -1.1 -2.2 -2.2 -3.3 -3.3 c -5.8 -5.1 -10.2 -11.6 -14.9 -17.7 c -3.2 -4.6 -6 -9.4 -8.9 -14.2 c -3.8 -7.5 -8 -14.7 -12.2 -22 c -0.7 -1.3 -1.2 -2.7 -1.6 -4.1 c 1.2 -0.2 2.5 -0.4 3.7 -0.5 c 7 0 14 -0.1 21 -0.2 c 31.6 0.1 63.4 2.2 94.7 -2.9 c 18.4 -2.3 37.1 -2.7 55.4 -6.3 c 16.9 -3.3 34.3 -2 51.3 -4.7 C 435.6 304.2 438.7 298.5 443.4 295.9 M 655.2 302.5 c -12.7 1.9 -25.7 1.9 -38.4 3.7 l -0.1 0.7 c -2.7 0 -5.4 0.1 -8 0.5 c -10.7 1.4 -21.4 0.8 -32.1 0.4 c -5.3 -0.1 -10.6 0.8 -15.9 0.3 c -9 -0.6 -18 0 -27 0.3 c -9.4 0 -18.8 -1.1 -28.1 0.5 c -6.5 0.8 -13 1 -19.3 3 c 1.5 13.4 4.1 26.8 9.4 39.2 c 3.8 8.4 9.3 15.9 14.3 23.7 c 5.3 8.6 13.1 15.8 22.2 20.4 c 3.4 1.9 6.9 3.8 10.8 4.8 c 10.7 2.8 21.5 6.3 32.7 6 c 7.8 -0.4 15.8 -0.8 23.2 -3.6 c 7.4 -2.7 14.4 -6.8 21 -11.1 c 4.2 -1.8 7.3 -5.4 11 -8 c 12.4 -8.6 21.2 -21.3 29.2 -33.8 c 9.2 -15.5 17.5 -31.8 22.7 -49.1 C 673.5 299.6 664.4 301.7 655.2 302.5 M 374.5 316.8 c -8 0.1 -15.9 1.1 -23.9 1.6 c -5.3 0.4 -10.6 2 -15.9 1.7 c -5 0.7 -10.2 0.6 -15.2 1.3 c -15.8 2.7 -31.8 2.3 -47.8 2.4 c -10.2 0.4 -20.3 0.7 -30.5 0.6 c -8.9 0 -17.9 -0.4 -26.9 0.5 c 9.3 18.6 21.1 36 35.2 51.3 c 7.5 8 15.5 15.6 25.2 21 c 5.4 2.8 10.5 6.4 16.1 8.8 c 12.9 6.1 27.2 10.6 41.7 8.9 c 12.3 0 24.3 -4 35.5 -8.7 c 3 -0.4 5.7 -1.9 8.4 -3.3 c 10.4 -5.6 20 -13.6 25.8 -24.1 c 6.1 -11.1 13.5 -21.9 15.8 -34.5 c 2.6 -9.6 3 -19.7 3.4 -29.6 c -7.5 -1.2 -15.1 -0.6 -22.7 -0.5 C 390.5 313.9 382.4 314.9 374.5 316.8 L 374.5 316.8 z" stroke-linecap="round" />
</g>
		<g transform="matrix(1 0 0 1 -15.3 -65.23922562)" id="Layer_1"  >
<path style="stroke: none; stroke-width: 1; stroke-dasharray: none; stroke-linecap: butt; stroke-dashoffset: 0; stroke-linejoin: miter; stroke-miterlimit: 4; fill: rgb(62,77,87); fill-rule: nonzero; opacity: 1;"  transform=" translate(-461.95, -353.61077438)" d="M 655.2 302.5 c 9.1 -0.8 18.2 -2.9 27.5 -2.2 c -5.2 17.3 -13.5 33.6 -22.7 49.1 c -8 12.6 -16.8 25.2 -29.2 33.8 c -3.7 2.6 -6.7 6.3 -11 8 c -6.7 0.9 -13.4 1.6 -20.2 1.1 c -4.5 -0.3 -8.9 0.6 -13.3 -0.4 c 3.5 -6.3 7 -12.5 10.5 -18.8 c 7.7 -13.8 11 -29.4 15.4 -44.5 c 2.1 -7.1 2.7 -14.6 4.5 -21.8 l 0.1 -0.7 C 629.6 304.4 642.5 304.4 655.2 302.5 M 505.6 308.9 c 9.3 -1.6 18.8 -0.5 28.1 -0.5 c 9 -0.3 18 -1 27 -0.3 c 5.3 0.5 10.6 -0.4 15.9 -0.3 c -1.5 5.8 -3.5 11.4 -4.5 17.3 c -0.8 4.9 -2.2 9.8 -4 14.4 c -2.6 6.5 -4.2 13.5 -8.4 19.2 c -2.2 -9.5 0.5 -21.6 -8.2 -28.4 c 0 4 0.2 8 -0.4 12 c -1.6 11.7 -3.8 23.6 -9 34.2 c -3.9 -3.7 -8.5 -6.6 -11.8 -10.8 c -6 -7.4 -11.6 -15.2 -14.7 -24.3 c -2.7 -6.2 -3.2 -13 -5.8 -19.3 C 507.9 317.8 506.7 313.4 505.6 308.9 M 374.5 316.8 c 7.9 -1.8 16 -2.9 24.1 -2.7 c 7.6 -0.1 15.2 -0.7 22.7 0.5 c -0.4 9.9 -0.8 19.9 -3.4 29.6 c -2.3 12.7 -9.7 23.5 -15.8 34.5 c -5.8 10.5 -15.3 18.5 -25.8 24.1 c -2.6 1.4 -5.4 2.9 -8.4 3.3 c -8.3 0.5 -16.6 1.5 -24.8 0.6 c 5.1 -7.5 9.2 -15.6 13.6 -23.5 c 6.9 -13.4 10.3 -28.2 14.5 -42.5 c 2.4 -7.7 2.7 -15.9 5.1 -23.6 C 375.9 317 375 316.8 374.5 316.8 M 319.5 321.4 c 5 -0.8 10.2 -0.6 15.2 -1.3 c -2.4 7.9 -4.1 16 -6 24.1 c -3.1 8.5 -5.6 17.4 -10.2 25.3 c -0.8 -5.2 -0.8 -10.4 -1.5 -15.6 c -0.7 -5.2 -3.1 -10.5 -7.4 -13.6 c 0.1 3.3 0.6 6.5 0.3 9.8 c -1.6 15.5 -5.2 31 -12.7 44.8 c -6 -5.3 -13.5 -8.5 -19.3 -14 c -10.6 -8.1 -18.8 -18.9 -25.8 -30.2 c -4.5 -8.3 -9 -16.9 -10.9 -26.2 c 10.2 0.1 20.3 -0.2 30.5 -0.6 C 287.6 323.7 303.7 324.1 319.5 321.4 L 319.5 321.4 z" stroke-linecap="round" />
</g>
		<g transform="matrix(1 0 0 1 -23.55 -57.81877055)" id="Layer_1"  >
<path style="stroke: none; stroke-width: 1; stroke-dasharray: none; stroke-linecap: butt; stroke-dashoffset: 0; stroke-linejoin: miter; stroke-miterlimit: 4; fill: rgb(121,147,154); fill-rule: nonzero; opacity: 1;"  transform=" translate(-453.7, -361.03122945)" d="M 608.6 307.4 c 2.7 -0.4 5.3 -0.5 8 -0.5 c -1.7 7.2 -2.3 14.7 -4.5 21.8 c -4.4 15 -7.8 30.6 -15.4 44.5 c -3.5 6.2 -7 12.5 -10.5 18.8 c -3.2 4.8 -6 10.4 -10.7 13.9 c -11.2 0.4 -22 -3.2 -32.7 -6 c -3.8 -1 -7.3 -2.9 -10.8 -4.8 c 3.3 -6.2 6.7 -12.4 9.8 -18.7 c 5.2 -10.7 7.4 -22.5 9 -34.2 c 0.6 -4 0.4 -8 0.4 -12 c 8.7 6.8 6 18.9 8.2 28.4 c 4.2 -5.7 5.8 -12.7 8.4 -19.2 c 1.9 -4.6 3.2 -9.5 4 -14.4 c 1 -5.9 3 -11.5 4.5 -17.3 C 587.2 308.2 598 308.8 608.6 307.4 M 350.6 318.4 c 7.9 -0.5 15.9 -1.5 23.9 -1.6 c 0.5 0.1 1.4 0.2 1.9 0.3 c -2.4 7.7 -2.7 15.9 -5.1 23.6 c -4.2 14.4 -7.6 29.2 -14.5 42.5 c -4.4 7.9 -8.5 16 -13.6 23.5 c -1.8 2.4 -3.3 5.3 -5.7 7.1 c -1.6 0.5 -3.3 0.8 -5 1 c -14.5 1.7 -28.7 -2.8 -41.7 -8.9 c 2.1 -3.7 4.3 -7.4 6.4 -11.1 c 7.4 -13.8 11.1 -29.3 12.7 -44.8 c 0.3 -3.3 -0.1 -6.6 -0.3 -9.8 c 4.4 3.2 6.7 8.4 7.4 13.6 c 0.7 5.2 0.7 10.4 1.5 15.6 c 4.6 -7.9 7.1 -16.8 10.2 -25.3 c 1.9 -8.1 3.5 -16.2 6 -24.1 C 340.1 320.4 345.3 318.8 350.6 318.4 L 350.6 318.4 z" stroke-linecap="round" />
</g>
		<g transform="matrix(1 0 0 1 -60.15 -57.05)" id="Layer_1"  >
<path style="stroke: none; stroke-width: 1; stroke-dasharray: none; stroke-linecap: butt; stroke-dashoffset: 0; stroke-linejoin: miter; stroke-miterlimit: 4; fill: rgb(52,66,75); fill-rule: nonzero; opacity: 1;"  transform=" translate(-417.1, -361.8)" d="M 486.3 311.8 c 6.3 -1.9 12.9 -2.2 19.3 -3 c 1.1 4.5 2.3 8.9 4 13.2 c 2.5 6.2 3.1 13.1 5.8 19.3 c 3.1 9 8.7 16.9 14.7 24.3 c 3.4 4.2 8 7.2 11.8 10.8 c -3.2 6.3 -6.5 12.5 -9.8 18.7 c -9.1 -4.6 -16.8 -11.7 -22.2 -20.4 c -5 -7.8 -10.5 -15.3 -14.3 -23.7 C 490.4 338.6 487.8 325.2 486.3 311.8 M 214.4 324.8 c 8.9 -0.9 17.9 -0.5 26.9 -0.5 c 1.9 9.4 6.3 17.9 10.9 26.2 c 7 11.3 15.2 22.1 25.8 30.2 c 5.8 5.5 13.4 8.7 19.3 14 c -2 3.8 -4.3 7.4 -6.4 11.1 c -5.6 -2.5 -10.7 -6 -16.1 -8.8 c -9.6 -5.3 -17.7 -13 -25.2 -21 C 235.4 360.9 223.7 343.4 214.4 324.8 M 599.6 392.3 c 6.7 0.6 13.5 -0.2 20.2 -1.1 c -6.7 4.3 -13.6 8.4 -21 11.1 c -7.4 2.8 -15.4 3.2 -23.2 3.6 c 4.7 -3.5 7.5 -9.1 10.7 -13.9 C 590.7 392.9 595.2 392.1 599.6 392.3 M 343.2 406.7 c 8.3 0.9 16.6 -0.1 24.8 -0.6 c -11.2 4.8 -23.2 8.7 -35.5 8.7 c 1.7 -0.2 3.4 -0.5 5 -1 C 339.9 412 341.4 409.1 343.2 406.7 L 343.2 406.7 z" stroke-linecap="round" />
</g>
		<g transform="matrix(1 0 0 1 -19.26857319 -24.44856123)" id="Layer_1"  >
<path style="stroke: none; stroke-width: 1; stroke-dasharray: none; stroke-linecap: butt; stroke-dashoffset: 0; stroke-linejoin: miter; stroke-miterlimit: 4; fill: rgb(255,240,0); fill-rule: nonzero; opacity: 1;"  transform=" translate(-457.98142681, -394.40143877)" d="M 676.6 333.7 c 7.1 2.4 13.9 5.9 19.8 10.6 c 8.3 7.1 14.1 16.9 16.6 27.5 c 2.6 13.6 0.9 28.5 -7.4 40 c -8 12.6 -22 20.9 -36.8 22.6 c -1 0.3 -1.9 -0.2 -2.5 -1 c 8.4 -16.2 14.8 -33.3 21.8 -50.1 c 2.1 -6.7 5.9 -13.2 5.4 -20.5 c -3.4 3.6 -5.5 8.2 -7.2 12.9 c -8.1 20 -16.3 40.1 -26.6 59.1 c -12.4 -1.2 -24.8 -6.2 -33.4 -15.4 c -4.9 -5.2 -9.6 -11.2 -11.1 -18.3 c 7.2 -4 14.4 -8.4 20.5 -14 c 5.4 -5.9 11.3 -11.3 16.8 -17.2 c 5 -5.4 8.9 -11.7 13.5 -17.4 C 669.8 346.4 673.4 340.2 676.6 333.7 M 208.4 377.4 c 4.9 -6.8 10.6 -13.4 18 -17.7 c 4.8 6.1 9.1 12.5 14.9 17.7 c -5.1 0.7 -10.2 0.8 -15.1 2.3 c -8.1 2.3 -15.3 6.8 -22.7 10.7 C 204.8 385.9 206.6 381.6 208.4 377.4 M 232 382.4 c 4.2 -1 8.4 -1.5 12.7 -1.8 c 6.5 7.1 14.6 12.4 22.2 18.2 c 10.4 8.8 23.3 14 36.1 18 c -3 8.4 -6.8 16.9 -13.5 23 c -10.8 11.1 -26.6 16.1 -41.9 15.2 c -5.9 -9.1 -8.8 -19.6 -12.3 -29.8 C 230.7 411.5 228.6 396.6 232 382.4 M 202.4 393.9 c 7.7 -3.8 15.3 -8.1 23.7 -10.1 c -0.3 7.5 -2.2 14.8 -1.5 22.3 c 0.3 8.4 3.9 16 6 24 c 1.3 5.4 3.8 10.4 5.5 15.6 c 0.8 2.4 1.7 4.7 3 6.9 c -9.9 -1.9 -18.6 -8.2 -25.1 -15.7 c -5.4 -6 -8.5 -13.6 -11.1 -21.2 C 201.7 408.5 201.5 401.1 202.4 393.9 L 202.4 393.9 z" stroke-linecap="round" />
</g>
		<g transform="matrix(1 0 0 1 2.55465843 -56.5)" id="Layer_1"  >
<path style="stroke: none; stroke-width: 1; stroke-dasharray: none; stroke-linecap: butt; stroke-dashoffset: 0; stroke-linejoin: miter; stroke-miterlimit: 4; fill: rgb(228,145,33); fill-rule: nonzero; opacity: 1;"  transform=" translate(-479.80465843, -362.35)" d="M 480.5 363.1 c -1.6 0 -1.8 -0.5 -0.7 -1.5 C 479.9 362 480.3 362.7 480.5 363.1 L 480.5 363.1 z" stroke-linecap="round" />
</g>
		<g transform="matrix(1 0 0 1 -124.4 105.6)" id="Layer_1"  >
<path style="stroke: none; stroke-width: 1; stroke-dasharray: none; stroke-linecap: butt; stroke-dashoffset: 0; stroke-linejoin: miter; stroke-miterlimit: 4; fill: rgb(218,240,254); fill-rule: nonzero; opacity: 1;"  transform=" translate(-352.85, -524.45)" d="M 254.6 476.8 c 5.3 4.2 9.1 9.8 14 14.4 c 5 5.1 11.4 8.6 17.1 12.9 c 4 3.1 8.5 5.6 12.7 8.5 c -2.9 10.8 -4.8 21.9 -7.5 32.8 c -5.3 -2.2 -9.3 -6.4 -14.5 -8.6 c -4.8 -8.9 -9.1 -18.2 -12.8 -27.6 C 259.8 498.7 255.6 488.1 254.6 476.8 M 303 515.8 c 8.5 2.3 15.1 8.3 23 11.9 c 7.3 3.1 14.2 7.2 22 8.7 c 6.7 1.3 13.3 3.4 19.7 5.7 c -1.9 9.3 -3.4 18.7 -5.8 27.9 c -23.3 -2.7 -46.1 -10 -66.7 -21.3 C 297.4 537.6 300.2 526.7 303 515.8 M 372.9 543.5 c 2.7 0.6 5.3 1.3 7.9 2.1 c 18.4 5.2 37.6 8.2 56.8 6.7 c 4.4 -0.3 8.7 -1.2 13.1 -1.4 c 0.1 1.9 0.3 3.9 0.4 5.8 c -25.9 10.5 -54.1 15.9 -82.1 13.7 c -0.3 0.4 -1 1.3 -1.3 1.7 C 369.8 562.7 370.7 553 372.9 543.5 L 372.9 543.5 z" stroke-linecap="round" />
</g>
		<g transform="matrix(1 0 0 1 -58.3 161.7)" id="Layer_1"  >
<path style="stroke: none; stroke-width: 1; stroke-dasharray: none; stroke-linecap: butt; stroke-dashoffset: 0; stroke-linejoin: miter; stroke-miterlimit: 4; fill: rgb(99,194,254); fill-rule: nonzero; opacity: 1;"  transform=" translate(-418.95, -580.55)" d="M 290.8 545.5 c 2.7 -10.9 4.5 -22 7.5 -32.8 c 1.5 1.1 3.1 2.3 4.7 3.2 c -2.8 10.9 -5.6 21.8 -7.6 32.8 c -1 5.2 -2.6 10.3 -3 15.6 c -1.4 -2.3 -3 -4.4 -4.5 -6.6 C 289 553.6 289.9 549.5 290.8 545.5 M 538.6 537.3 c 2.5 -0.7 5 -1.2 7.5 -1.9 c -0.1 26 1.2 52 3.9 77.8 c -2.4 1.5 -4.7 3.2 -7 4.7 c 0.3 -2.3 0.4 -4.6 0.3 -6.9 c -0.5 -12 -0.6 -24.1 -1.6 -36 c -0.5 -6 -1.7 -11.9 -1.7 -17.9 C 539.8 550.4 539.9 543.8 538.6 537.3 M 367.8 542.1 c 1.7 0.6 3.4 1 5.1 1.4 c -2.1 9.5 -3.1 19.2 -5.2 28.7 c -2.6 10.2 -3.8 20.6 -5.3 31 c -1.3 8.5 -1.4 17.1 -3.5 25.5 c -2.2 -1.2 -4.3 -2.5 -6.5 -3.9 c 3.6 -18.2 6.1 -36.6 9.7 -54.7 C 364.4 560.8 365.9 551.4 367.8 542.1 M 450.7 550.9 c 2.5 0 4.9 0 7.4 -0.2 c -2.3 28.3 -0.6 56.8 3.1 84.9 c 0.8 4 1.8 8 2.2 12.1 c -2.4 0.2 -4.8 0.4 -7.1 0.7 c -3.5 -21.6 -4.4 -43.6 -4.9 -65.5 c 0 -8.8 0.1 -17.5 -0.4 -26.3 C 450.9 554.8 450.8 552.8 450.7 550.9 L 450.7 550.9 z" stroke-linecap="round" />
</g>
		<g transform="matrix(1 0 0 1 -67.48125 174.40364545)" id="Layer_1"  >
<path style="stroke: none; stroke-width: 1; stroke-dasharray: none; stroke-linecap: butt; stroke-dashoffset: 0; stroke-linejoin: miter; stroke-miterlimit: 4; fill: rgb(255,255,255); fill-rule: nonzero; opacity: 1;"  transform=" translate(-409.76875, -593.25364545)" d="M 276.3 536.9 c 5.2 2.2 9.3 6.5 14.5 8.6 c -1 4 -1.8 8.1 -2.9 12.2 C 283.9 550.8 279.9 543.9 276.3 536.9 M 458.1 550.8 c 27.3 -1.3 54.3 -5.8 80.5 -13.4 c 1.3 6.5 1.2 13.1 1.3 19.8 c 0 6 1.3 11.9 1.7 17.9 c 1 12 1.1 24 1.6 36 c 0.1 2.3 0 4.6 -0.3 6.9 c -5.3 3.6 -10.9 6.6 -16.2 10.1 c -12.1 7.9 -26.3 11.2 -40 15.2 c -7.6 2.3 -15.3 3.9 -23.2 4.5 c -0.4 -4.1 -1.4 -8.1 -2.2 -12.1 C 457.5 607.5 455.8 579.1 458.1 550.8 M 295.4 548.7 c 20.6 11.4 43.3 18.6 66.7 21.3 c -3.6 18.2 -6 36.6 -9.7 54.7 c -6.4 -3.6 -12.3 -7.9 -17.7 -12.8 c -5.6 -5 -11.8 -9.4 -17 -14.9 c -9.6 -9.9 -18.4 -20.8 -25.3 -32.8 C 292.8 559 294.4 553.9 295.4 548.7 M 368.9 570.5 c 28 2.2 56.2 -3.2 82.1 -13.7 c 0.5 8.8 0.4 17.5 0.4 26.3 c 0.5 21.9 1.4 43.8 4.9 65.5 c -2.9 0.3 -5.8 0.4 -8.6 0.5 c -10.8 0.1 -21.8 1.4 -32.5 -0.6 c -11 -2.2 -22.1 -4.4 -32.7 -8.2 c -8.4 -2.6 -15.9 -7.4 -23.6 -11.6 c 2.1 -8.3 2.2 -17 3.5 -25.5 c 1.5 -10.3 2.8 -20.8 5.3 -31 C 368 571.8 368.6 570.9 368.9 570.5 L 368.9 570.5 z" stroke-linecap="round" />
</g>
</g>
</g>
<g transform="matrix(0.3841624 0 0 0.38435157 618.68748874 267)"  >
<g style="opacity: 0.23;"   >
		<g transform="matrix(1 0 0 1 -0.1 0)" id="Layer_1"  >
<path style="stroke: none; stroke-width: 1; stroke-dasharray: none; stroke-linecap: butt; stroke-dashoffset: 0; stroke-linejoin: miter; stroke-miterlimit: 4; fill: rgb(218,124,38); fill-rule: nonzero; opacity: 1;"  transform=" translate(-486.8, -427.45)" d="M 476.7 0 c 8.9 1.5 14.8 9 19.1 16.3 c 11.4 19 21.5 39.8 22.3 62.3 c 0.1 17.9 -4 35.7 -10.5 52.3 c 8 -1.3 16.8 -1.5 23.6 -6.6 c 3.6 -3.1 7.3 -6.3 10.1 -10.1 c 3.2 -5.1 -1.3 -11.4 1.4 -16.7 c 3.6 -6.7 9.3 -13.1 17.3 -14.1 c -0.1 5.5 -2.5 11.2 -0.1 16.5 c 3.3 6.5 6.9 13 8.6 20.1 c 1.4 5.7 0.5 11.6 -0.5 17.3 c 15.6 2.4 31.6 -0.7 46.3 -6.1 c 10.5 -4.1 20.7 -10.5 26.8 -20.3 c 5.3 -8.7 11.1 -17.4 13.1 -27.6 c 1.9 -8.5 3 -17.2 4.1 -25.8 c 0.7 -5.5 0.8 -11.4 3.5 -16.5 c 3 -6 7.9 -10.6 12.1 -15.6 c 3.6 -0.4 7.6 -1 10.8 1.1 c -3.3 2.7 -7.8 4.9 -8.8 9.5 c -1.4 7 -2.9 14.5 -0.6 21.5 c 1.1 4.2 4.3 7.3 6.1 11.1 c 3.1 6.1 5.9 12.4 10 18 c 9.9 14.9 19.5 31.2 20 49.6 c 0.5 18 -11.7 33.7 -26.1 43.3 c -8.8 6.6 -15.7 15.3 -22.1 24.1 c 11.1 8.2 26 11.9 39.5 8.2 c 10.3 -3.7 15.1 -14.4 20.4 -23.2 c 8.2 -13.8 25.6 -20 40.9 -17.5 c 5.5 1 10.7 3.1 15.7 5.5 c -7.8 2.7 -16.9 0.6 -23.8 5.6 c -8.9 7.5 -13.4 19.2 -13.8 30.6 c -0.3 8.3 3.6 15.9 7.2 23.1 c 2.6 5.4 7.4 9.5 8.9 15.3 c 0.9 3.1 1.1 6.3 1.3 9.4 c 9 -7.3 20.4 -13 32.3 -11.7 c 7.8 0.7 17.1 1.8 21.6 9 c 5.1 7.4 12.9 13.4 21.9 14.6 c 5.6 0.5 11.2 -0.6 16.8 -1.1 c -3.5 5 -10 6.8 -15.9 6.5 c -5.4 0.2 -10.6 -1.6 -16 -1.7 c -9 0.2 -17.5 3.8 -25.6 7.5 c -7.8 3.3 -12.7 12.1 -11.7 20.4 c 1 10.4 7.2 19.5 8.5 29.8 c 0.3 4.6 0 9.2 0.1 13.9 c 6.7 -3.2 13.2 -7.1 20.4 -9.1 c 14.5 -3.1 30 -5 44.3 -0.2 c 9.8 3.7 19.7 7.8 27.7 14.7 c 15.1 14.2 18.8 35.6 28.5 53.2 c 3 5.6 8.7 9 14.5 11.2 c 7.7 2.9 15.5 6.9 24 6 c 8.7 -0.6 15.6 -6.3 22.8 -10.6 c -1.5 10.4 -11.9 15.1 -19.1 21.3 c -7.6 7.7 -16.2 15.2 -26.8 18.2 c -4.8 1.2 -10 1.9 -14.7 -0.1 c -17.6 -6.8 -31.8 -20.7 -50.3 -25.7 c -7.4 -1.7 -15 -3.3 -22.7 -2.8 c -5.7 0.9 -11 3.4 -15.9 6.2 c -5.3 3.1 -10.9 6 -15.4 10.3 c -3.3 3.1 -6.4 6.4 -9.6 9.5 c 7.6 0.7 15.3 1.5 22.5 4.3 c 10.8 3.8 19.8 11.2 28.1 19 c 4.6 4.5 9.7 8.7 13.9 13.7 c 6.7 8 11.8 17.1 18.7 24.9 c 4.8 5.5 8.9 12.9 6.7 20.5 c -4.6 -4.8 -7.8 -11 -13.2 -15.1 c -12 -9.1 -27.2 -13.3 -42.1 -14.3 c -10.8 1.2 -21.9 3.9 -30.9 10.3 c -8.7 6.7 -15.6 15.9 -19.4 26.3 c -3.1 7.7 -8.5 14.1 -13 20.9 c 6.6 2.7 13.2 6 18.1 11.3 c 4.2 4 6.1 9.7 7.8 15.1 c 2.1 6.7 3.1 14.1 1.3 21 c -3 10.1 -5.7 20.3 -9 30.3 c -1.7 5.3 -3.5 11.2 -1.9 16.8 c 2.1 7.2 4.4 14.5 8.5 21 c 4 6.4 9.8 11.3 15.6 16.1 c 2.6 2.1 5.1 4.5 8.5 5.3 c 5.3 1.3 10.7 -0.5 16.1 -0.2 c -3.7 5.8 -11 6.4 -17.2 7 c -21 -0.6 -42.6 -2.9 -61.9 -12 c -13 -5.9 -23.5 -16.1 -33.1 -26.4 c -4.6 -5.3 -8.9 -10.8 -12.9 -16.5 c -2.8 7.1 -7.5 13.7 -7.8 21.6 c 0.1 5.7 0.9 11.5 3.2 16.7 c 3.1 4.3 9.2 4.8 12.3 9.1 c 3.9 6.7 5.2 15 3.1 22.5 c -4.5 -1.9 -7.6 -6 -11.9 -8.2 c -7.4 -2.2 -15.2 -1.8 -22.5 -4.4 c -6.1 -1.8 -11 -6.2 -15.5 -10.5 c -4.7 6.2 -10.2 11.9 -13.1 19.2 c -6.9 15.6 -12.8 33.2 -8.2 50.3 c 3.1 9.4 7.4 18.5 13 26.7 c 8.9 11.2 20.4 19.9 30.8 29.6 c 6.8 6.4 8 16.1 10.3 24.6 c -1.7 3.3 -3.7 6.4 -6.9 8.4 c -0.4 -4.4 0.4 -9.7 -3.1 -13.1 c -4.8 -5 -10 -9.8 -16.6 -12.2 c -5.1 -1.9 -10.6 -0.7 -15.8 -1.6 c -7 -1.1 -14.1 -2 -21.2 -1.7 c -15.7 -0.3 -32 -1.8 -46.1 -9.4 c -11.1 -5.8 -18.7 -17 -21.6 -29 c -3 -9.3 -1.6 -19.1 -3.5 -28.6 c -1.4 -7.5 -3.7 -14.8 -6.5 -22 c -13.1 4.7 -24.6 15 -29.1 28.3 c -2.8 11 4.1 21 8.2 30.6 c 8.3 19.8 -3.3 44.6 -23 52.4 c 3.5 -7.6 9.7 -14.5 9.5 -23.3 c -1.5 -11.8 -9.2 -22.1 -18.9 -28.7 c -5.8 -4.2 -13.2 -4.8 -20 -6 c -5.9 -1.2 -12 0.2 -17.9 -0.9 c -7.3 -2 -13.6 -6.5 -19.3 -11.4 c -8.8 11.7 -21.4 21.9 -36.5 23 c -12.8 2.2 -26.3 7.2 -34.1 18.2 c -2.1 2.4 -3.7 5.5 -6.6 7.1 c -1.4 -9.5 6.7 -16.3 13.4 -21.5 c 10.2 -7 16.4 -18.8 18.7 -30.8 c 1.1 -5.5 -2.6 -11.1 -7.4 -13.5 c -10 -5.2 -21.6 -4.3 -32.4 -6.8 c -7.5 -1.3 -14.3 -4.8 -21 -8.1 c -2.3 8.4 -3.6 17.5 -9.2 24.6 c -4.5 5.8 -7.6 12.8 -13.5 17.5 c -5 4.3 -9.7 9.1 -15.6 12.3 c -12.8 6.9 -26 14.1 -40.6 16.1 c -15.8 1.3 -31.6 -0.8 -47.1 -4.1 c -9.3 -2 -19.1 -3.6 -28.5 -1 c -4.8 1.2 -8.8 4.1 -13.3 6 c -8.2 4.1 -16.7 8.7 -21.7 16.6 c -4.1 6.3 -4.9 13.9 -6.5 21.1 c -4.8 -4.4 -4.9 -11.2 -4.1 -17.2 c 1.8 -10.8 -0.3 -22 2.5 -32.8 c 2.5 -8.8 7.7 -17.6 16.3 -21.6 c 14.4 -6.3 29.5 -10.7 44.1 -16.2 c 9.9 -3.8 18.6 -10.2 26.7 -16.8 c 3.7 -3.1 7.3 -6.7 9.2 -11.2 c 5.3 -12.8 7.1 -27.1 4.7 -40.8 c -12.3 12.3 -28.6 20.4 -45.7 23.4 c -15.4 2.3 -30.8 5.7 -46.5 4.3 c -9.8 -1.1 -19.7 -0.1 -29.6 -0.6 c -4.8 -0.6 -9.4 -3.1 -12.4 -6.9 c 6 -0.3 12 0.2 17.9 -0.2 c 17.6 -3.1 33.8 -12.4 46.8 -24.6 c 6.8 -8.7 12.4 -18.9 13.5 -30.1 c 0 -6.8 -1.4 -13.5 -3.8 -19.8 c -2.1 -5.4 -5.6 -10.1 -7.4 -15.5 c -1.7 -5.1 -3 -10.3 -4.5 -15.4 c -10.4 5.3 -22.7 8.5 -34.2 4.8 c -8.4 -2.7 -17.5 -5.7 -22.9 -13.1 c -7.2 -10.2 -14.1 -20.7 -21 -31.1 c -3.7 -5.5 -10.1 -8.3 -16.1 -10.3 c -5.7 -1.8 -11.4 -4.2 -17.4 -4.7 c -9.2 -0.7 -18.4 0.8 -27.4 2.6 c -7.2 2.1 -10.3 9.7 -15.9 14 C 23 564.8 30.3 557 37.3 551 c 16.4 -15.1 35.1 -28.9 57 -34.5 c 17.9 -4.2 36.6 -4.7 54.8 -2.3 c -3.5 -7.5 -6.3 -16 -13.4 -21 c -4.4 -2.8 -8.8 -6 -13.9 -7.2 c -5.2 0.2 -9.8 3.5 -15 3.2 c -7.7 -1.6 -15.6 -5.6 -19.2 -12.9 c 4.9 -1.1 10 -1 14.7 -2.7 c 6.6 -4 11.9 -10 19 -13.3 c 5.6 -3.1 12.1 -3.7 18.4 -3.9 c -1.5 -7.2 -2.3 -14.7 -5.8 -21.3 c -7 -15.4 -16.8 -30.8 -32.1 -39 c -10.4 -4.9 -21.7 -7.9 -33.1 -9 c -13.9 -0.4 -27.7 1.7 -41.5 2.7 c -9 0 -17.1 -4.7 -24.8 -9 c -1.3 -3.2 -1.8 -6.7 -2.5 -10.1 c 4.8 1.5 8.2 6.6 13.5 6 c 7.4 -0.2 15.2 -0.8 21.6 -4.7 c 3 -1.8 5.1 -4.7 7.7 -7 c 5.2 -4.4 10.9 -8.2 15.6 -13.2 c 11.4 -11.9 24.2 -23.4 40 -29 c 13 -4.5 27.5 -2.1 39.4 4.4 c 8.5 4.1 14.8 11.6 23 16.2 c 6.4 3.7 13.1 6.8 20 9.6 c 6 -13.4 5.1 -30 -3.8 -41.9 c -13.8 -0.1 -28.3 -3.9 -38.8 -13.2 c -5.3 -4.5 -8.7 -10.7 -11.4 -17.1 c -2.1 -5.1 -2.6 -11.1 -0.4 -16.3 c 2.8 -7.4 3.1 -15.8 0.2 -23.1 c -2.4 -6 -7.7 -10.1 -11 -15.5 c 4.8 0.5 9.3 3 12.3 6.8 c 4.7 5.4 6.2 12.7 10.6 18.3 c 5.5 7 13.1 11.9 20.7 16.3 c 6.2 3.4 14.2 2.9 20 -1.1 c 7.7 -5.1 11.9 -13.6 17.6 -20.6 c 4.2 -5.5 10.2 -9 16 -12.5 c -9.2 -5 -18.9 -9.8 -25.5 -18.3 c -8.1 -7.6 -14.3 -17.1 -18 -27.5 c -3.2 -12 -5.6 -24.6 -3.6 -37 c 3.1 -12.3 10.1 -23 17.1 -33.5 c 5.8 -8.8 13.6 -18 12.6 -29.3 c -2.4 -10 -3 -21.1 -10 -29.2 c -5.4 -6.6 -13.9 -9.1 -21.2 -12.8 c 9.7 -4.1 19.4 1.6 28.7 4 c 10.2 2.2 20.8 4.5 29.1 11.3 c 4.5 3.6 8.4 8.4 9.3 14.2 c 2.5 15.1 1.7 30.5 4 45.5 c 2 9.5 6.1 18.4 11 26.7 c 5.6 7.9 14.9 11.8 23.4 15.8 c 7.2 3.6 15.3 4.6 23.1 6 c -6.3 -10.1 -10.4 -21.6 -10.8 -33.5 c -0.4 -10.6 1.6 -21 3.2 -31.4 c 2 -14.6 9.5 -27.7 13 -41.9 c 1.6 -6.1 6 -11.5 11.9 -13.8 c -1.2 7.1 -5.1 13.7 -5.1 21.1 c -0.1 14.6 4.8 29.1 12.5 41.5 c 9 10.7 21 20.3 35.3 21.8 c 6.9 0.9 14 1.1 20.8 -0.6 c 8.8 -2.1 17.8 -1.5 26.8 -1.2 c -2.2 -9.7 -3 -20.5 2.1 -29.5 c 5 -7.8 11.1 -15.6 20 -19.3 c 10.4 -3.5 20.8 -6.9 31.3 -10.1 c 6.2 -1.6 12.5 -4.1 16.6 -9.4 c 5.3 -6.9 11 -13.9 13.3 -22.5 c 2 -7.5 2.8 -15.2 3.2 -22.9 C 486.6 10.6 479.6 6.3 476.7 0 M 491.1 28.6 c -0.5 6.6 -1.1 13.5 -4.5 19.4 c -2.6 4.7 -5.3 9.4 -8.6 13.7 c -2.9 3.8 -5.6 7.9 -9.8 10.4 c -7.5 4.7 -16.5 5.5 -24.6 8.5 c -7.7 2.8 -16 4.5 -23 8.8 c -14 9.3 -20.5 29 -13.2 44.4 c 1.3 3.1 4.1 5.3 6.8 7.1 c 3.4 3.9 7.8 7.1 10.2 11.8 c -1.4 -0.4 -2.8 -0.7 -4.2 -1.1 c -4.2 -4.1 -9 -7.6 -13.7 -11.1 c -5.2 -3.9 -12 -5.1 -18.4 -4.3 c -7.1 0.3 -14 2.2 -21.1 2.8 c -4.6 -0.6 -9.2 -0.2 -13.8 -0.4 c -14.1 -1.8 -26.6 -9.8 -36.3 -19.8 c -9.1 -10.3 -14 -23.8 -15.9 -37.3 c -0.2 -1.7 -0.7 -3.4 -1.5 -4.8 c -8.7 16.6 -11 35.6 -12.5 54.1 c -1.1 11.2 2.5 22 7 32 c 2.6 5.1 7.8 7.8 11.6 11.8 c -5.4 3.1 -11.1 -0.1 -16.7 -0.5 c -14 -1.5 -26.9 -7.8 -38.7 -15.3 c -5.7 -3.6 -9.3 -9.5 -12.4 -15.2 c -4.5 -8.8 -8.1 -18.1 -9.1 -28 c -1.7 -13.3 -0.1 -27 -3.5 -40.1 c -1.2 -5.9 -5.9 -10.4 -10.8 -13.4 c -7.4 -3.6 -15.3 -6 -23.5 -6.7 c 2.3 3.9 4.7 7.7 6.1 12 c 2.5 7 3.1 14.5 5.1 21.6 c -0.6 3.7 -1.5 7.4 -2.2 11.1 c -9.1 16 -21.2 30.4 -27.9 47.7 c -3.2 22.5 2.4 47.5 19.3 63.5 c 8.1 10.6 20.8 15.6 32.9 20.1 c 0.4 0.6 1.2 1.9 1.6 2.5 c -4.1 2.1 -8.6 2.8 -12.6 5 c -7 3.7 -12.4 9.8 -16.8 16.2 c -3.8 5.3 -7.5 11.1 -13.2 14.5 c -6.3 3.9 -14.2 6.3 -21.5 4 c -10.8 -3.6 -19 -11.8 -27.6 -18.8 c -0.3 1.7 -0.7 3.5 -0.7 5.3 c -2 10.4 -1.9 22.3 4.5 31.1 c 8.4 10.4 22.4 14.1 35.1 15.5 c 7.6 0.3 16.7 -3.9 23.1 2.1 c -4.3 0.7 -8.6 0.9 -12.9 1.4 c 1.7 3.5 3.7 6.8 4.9 10.5 c 1.8 5.2 1.5 10.9 1.7 16.3 c 0.1 6.1 -0.9 12.4 -3.9 17.8 c 1.9 0.4 3.8 0.9 5.8 0.9 c 1.2 -0.7 1.2 -2.3 1.8 -3.4 c 7 -19.2 16.2 -37.5 27.1 -54.8 c 2.1 -3.3 4.5 -6.4 6.2 -10 c 3.6 -3.9 6.8 -8.3 9.5 -12.8 c 3.8 -3.9 7 -8.4 10.7 -12.5 c 13.2 -15.3 28.4 -28.7 44.2 -41.2 c 0.5 -0.2 1.4 -0.7 1.9 -1 c 40 -29.5 87.2 -49.1 136.5 -55.9 c 28.4 -3.9 57.3 -4 85.6 0.6 c 22 2.9 43.6 9.1 64.3 17.2 c 45.6 18.7 86.6 48.5 118 86.5 c 11.2 13.2 20.6 27.7 29.5 42.5 c 17.4 30.6 28.3 64.5 33.7 99.2 l -0.2 0.4 c 6.7 46.4 1.5 94.3 -14.2 138.4 c -0.8 2.5 -2.1 4.8 -2.3 7.4 c -1.4 3.1 -2.7 6.4 -3.8 9.7 c 2.8 -0.8 5.5 -1.6 8.3 -2.3 c 7.4 -1.9 15.5 -4 20.8 -10 c 4.6 -4.9 7.4 -11.2 10.2 -17.3 c 3.5 -8.1 8.3 -15.6 14.3 -22.1 c 10 -9.7 23.7 -14.7 37.3 -16.6 c 14.4 -1.5 28.3 3.9 40.9 10.3 c 0.1 -2.4 -1.5 -4.3 -2.7 -6.2 c -9.3 -13.8 -21.9 -25.1 -34.7 -35.5 c -8.4 -7.1 -19.4 -9.5 -29.9 -11.4 c -5.8 -1.1 -11.1 2.1 -16.7 2.8 c 0.9 -2.8 2.1 -5.6 4.3 -7.6 c 7.2 -7.3 13.9 -15.6 23 -20.7 c 8.4 -4.9 17.1 -10.3 27 -11.1 c 9.5 -0.8 18.8 1.6 27.8 4.2 c 17.7 6 31.3 20.6 49.5 25.2 c 13.3 0.5 24 -8.7 32.3 -18 c -13.3 0.5 -25.4 -5.9 -37.1 -11.4 c -1.6 -3 -4.3 -5.2 -5.8 -8.2 c -3.1 -4.8 -4.5 -10.5 -7.5 -15.3 c -2.6 -8.1 -6.3 -15.8 -10.2 -23.4 c -2.6 -4.4 -4.7 -9.4 -8.9 -12.4 c -6.8 -5.2 -14.1 -9.7 -22.1 -12.9 c -13.2 -5.5 -28 -6 -41.8 -3 c -12.6 1.3 -22.6 9.5 -32.8 16.1 c -0.6 -1.6 -1.4 -3.2 -0.7 -4.9 c 1.8 -6.7 2.7 -13.8 1.4 -20.7 c -1 -7.3 -5 -13.7 -6.6 -20.8 c -2.6 -9.1 -2 -19.8 4.6 -27 c 8.5 -9.6 21.8 -11.9 33.6 -15 c -7.2 -8.6 -17 -15.9 -28.3 -17.4 c -10.9 -0.9 -20.7 5.4 -28.6 12.3 c -1.8 1.1 -1.8 3.4 -2.1 5.3 c -1.3 8.2 -5.7 15.8 -11.2 21.9 c -0.9 1.2 -2.5 1.2 -3.8 1.6 c 2.2 -6.7 6.9 -12.3 8.8 -19.1 c 1.7 -5.5 1.9 -11.4 1.1 -17.1 l 0.2 -0.3 c -0.7 -5.5 -2.8 -10.7 -6.6 -14.8 c -5.2 -5.7 -9.1 -12.5 -10.7 -20.1 c -2.8 -10.7 0.4 -22 5.3 -31.6 c 2.3 -4.8 6 -8.7 8.8 -13.2 c -5.8 0.4 -12.2 1.1 -16.5 5.5 c -6.6 5.6 -9 14.3 -14.1 21 c -6.2 9.1 -17.5 14 -28.4 14 c -10.8 -1.8 -22.2 -3.9 -30.8 -11.1 c -1.4 2.1 -2.8 4.3 -4.2 6.4 c -1.9 -2.7 -2.1 -6.4 -0.4 -9.2 c 6.2 -11.8 15.2 -22.4 26.4 -29.9 c 8 -5.1 14.3 -12.4 19 -20.5 c 6.1 -9.9 4.6 -22.4 1.6 -33.1 c -4.1 -15.4 -14.3 -28 -22 -41.7 c -2.7 -4.5 -4.5 -9.4 -7.5 -13.6 c -1.5 -2.4 -3.1 -4.9 -4 -7.6 c -1.6 -5.1 -0.7 -10.5 -1.8 -15.7 c -4.2 7 -3.9 15.4 -5 23.2 c -1.3 10 -2.7 20.1 -6.8 29.4 c -5.6 10.2 -10.5 21.5 -19.8 29 c -13.6 11.8 -31.6 16.4 -49.1 18.8 c -6.7 0.9 -13.4 -1.1 -20.1 -0.8 c -3 0.8 -5.4 3.1 -8.4 3.8 c -0.3 -4.4 2.6 -8 3.3 -12.2 c 1.1 -5.7 0.6 -11.6 -0.9 -17.1 c -2.1 -8.3 -7.7 -15.1 -9.1 -23.6 c -8.3 6.7 -0.3 19.3 -7.8 26.3 c -4.1 4.4 -8.3 9 -13.9 11.5 c -7.1 3.2 -14.9 4.5 -22.7 4.7 c -3.9 0 -8.9 -0.5 -10.6 -4.6 c 1.9 -0.7 3.8 -1.3 5.8 -2 c 5.2 -17.4 10.9 -35.2 9.9 -53.6 c -1.6 -19.8 -10.6 -38.1 -20.5 -55 C 490.8 22.9 491.5 25.9 491.1 28.6 M 349.2 193.2 c -30.6 13.8 -58.6 33.1 -82.9 56.3 c -48 47.3 -78.6 112.1 -83.5 179.4 c -3.4 42.4 1.7 85.8 17.1 125.6 c 13.2 35.1 34 67.2 59.7 94.5 c 11.7 12.1 24.8 22.8 38.3 32.9 c 34.5 24.9 74.8 41.5 116.6 49.1 c 45.2 8 92.3 6.3 136.5 -6.5 c 35.4 -10.1 68.9 -27 98 -49.7 c 30.7 -25.2 57.6 -55.6 76 -90.9 c 7.3 -14.7 14.6 -29.6 18.9 -45.6 c 4.3 -12.6 6.9 -25.7 9.3 -38.7 c 8 -44.5 5.2 -90.8 -8.3 -134 c -21.6 -71.1 -73.6 -131.6 -139.3 -165.9 c -28.4 -14.6 -59.3 -24.9 -91 -28.9 c -4.7 -1.3 -9.6 -1.5 -14.4 -2 C 449 163.9 396.3 171.9 349.2 193.2 M 100 328.8 c -18 6.2 -31.1 20.8 -44.6 33.6 c -5.5 3.7 -10.5 8.3 -15.3 12.9 c -2.4 2.2 -5.5 3.4 -8.4 4.8 c -3.4 0.8 -6.9 1.6 -10.1 2.9 c 2.7 0.6 5.5 0.9 8.2 1.1 c 8.1 0 16.1 -2.1 24.2 -2.1 c 3.9 0 7.7 -0.3 11.6 -0.4 c 10 0.1 19.6 3.3 29.1 6.1 c 6.6 2 12.7 5.3 18 9.5 c 13 10.2 21.5 25 27.8 40.1 c 2.4 5.9 2.7 12.3 4.2 18.4 c 1.6 2.9 4.7 4.8 6.4 7.8 c -5.1 0.9 -10.2 -1.1 -15.3 -0.5 c -10.2 0.9 -19.4 6.4 -26.9 13 c -2.6 2.4 -6.2 3.4 -9 5.5 c 8.9 5.4 18.8 -4.1 27.8 0.6 c 8.5 3.9 16.7 9.7 21.1 18.3 c 2.1 4.1 4.3 8.2 5.6 12.6 c 1.1 3.9 0.8 8.6 -2.2 11.6 c -1.2 -1.8 -2.3 -3.8 -3.8 -5.4 c -11.3 0.2 -22.5 -1.6 -33.8 -0.4 c -10.3 1.1 -20.8 2.4 -30.4 6.8 c -16.1 6.9 -30.5 17.3 -42.9 29.6 c 8.1 -1 16.1 -3.4 24.3 -2.6 c 7.1 0.5 13.8 3 20.4 5.4 c 4.3 1.6 8.7 3 12.4 5.7 c 4.3 3.2 7.5 7.5 10.1 12.1 c 4.2 7.3 9.3 14.1 13.9 21.2 c 9 13.6 27.5 18.9 42.8 14.8 c 6.5 -1.4 13.2 -4.3 16.9 -10.1 c 3.6 -6 5.9 -13.3 12.2 -17.1 c -0.4 5.4 -3.1 10.3 -5.5 15 c -2.3 4.2 -4.1 8.9 -3.8 13.8 c -0.1 10.9 7.4 19.5 10.8 29.4 c 2.3 6.7 5.1 13.5 4.3 20.7 c -1 11.9 -6.8 22.9 -13.9 32.4 c -5.3 6.4 -12.5 11 -19.3 15.6 c -5.4 3.2 -11.1 5.7 -16.9 8.1 c 3.2 1.3 6.8 1.2 10.2 1.3 c 13.9 0.4 27.7 -1.8 41.4 -4.1 c 9.7 -1.7 19.7 -4 28 -9.5 c 4 -2.7 8.2 -5.1 12 -8.1 c 4.7 -3.7 6.2 -9.8 9.6 -14.5 c 2 2.1 4 4.5 4.3 7.5 c 1 9.2 3.5 18.4 1.7 27.6 c -1.5 7.9 -3 15.9 -6.8 23 c -5.2 9.1 -14 15.4 -22.4 21.2 c -16 11.3 -35.9 14.3 -53.5 22.1 c -5.3 2.5 -11.1 4.8 -14.6 9.7 c -6.7 8.9 -7.1 20.7 -6 31.4 c 5.9 -5.7 12.4 -10.9 20 -14.2 c 7.7 -3.3 15 -8.8 23.7 -8.7 c 10.9 -0.9 21.3 2.6 31.9 4.1 c 11.6 1.8 23.3 3.8 35.1 3 c 5.7 -0.7 11.1 -2.9 16.5 -4.7 c 17.6 -6.4 34.8 -16.2 45.9 -31.8 c 3 -4.5 6.7 -8.7 8.7 -13.8 c 3.3 -8.1 3.8 -16.9 4.6 -25.5 c 1.9 -0.1 3.8 -0.1 5.6 -0.1 l -0.8 1 c 7.7 8.4 19 12 29.9 13.7 c 9.9 1.6 20.6 1.6 29.4 7.1 c 5.8 3.3 10.4 9.9 9.5 16.8 c -1.6 9 -6.4 17 -10.7 24.9 c 8.1 -1 15.9 -3.7 23.3 -6.9 l 0.1 -0.3 c 8.3 -3.6 17.5 -8.2 21.4 -17 c 4.4 -10.1 2.9 -22.7 -4.1 -31.3 c -0.8 -0.9 -1.6 -2.1 -3 -2.1 c -5.8 -0.7 -11.6 -1.2 -17.3 -2.2 c -21.6 -3.5 -42.8 -9.2 -63.3 -16.9 c -14.3 -5.4 -28 -12.2 -41.2 -19.7 c -29.2 -16.6 -55 -38.7 -76.9 -64.2 c -2.8 -4.6 -6.7 -8.5 -9.8 -12.9 c -5.5 -7 -10 -14.8 -15.3 -21.9 c -1.5 -3 -3.2 -5.9 -4.9 -8.8 c -20.4 -35.4 -32.2 -75.4 -36 -116 c -0.2 -2.8 -0.4 -5.6 -0.7 -8.4 c 0.5 -4.7 -0.3 -9.4 -0.3 -14.2 c 0 -14.2 1 -28.4 2.8 -42.4 c 2.6 -18 6.8 -35.8 12.7 -53 c -3.3 -0.2 -6.7 -0.2 -9.9 -1.3 c -12.4 -4.1 -24.4 -10.3 -34 -19.2 C 134.2 329.2 116 322.7 100 328.8 M 757.9 565.8 c -6.2 1.9 -12.6 3.5 -19.1 3.3 c -3 6.7 -6.3 13.4 -9.8 19.9 c -12.4 21.8 -27.2 42.2 -44.5 60.4 c -9.5 9.8 -19.2 19.4 -29.8 28 c -26.9 21.7 -57.8 38.4 -90.6 49.3 c 8.8 13.6 12.5 30.1 12.3 46.1 c 0.2 9.9 3.5 19.6 8.8 27.9 c 5 7.8 13.7 12 22.1 15 c 17.7 5.8 36.5 4 54.7 6.3 c 4.6 0.7 9.2 0.8 13.8 1.2 c 6.5 0.6 11.6 5.3 17.3 8.1 c -4.9 -9.5 -14.8 -14.5 -21.9 -21.9 c -5.7 -6.1 -12.4 -11.5 -16.1 -19.1 c -4.6 -9.6 -10.6 -18.9 -11.7 -29.7 c -2.5 -18 4.1 -35.7 11.8 -51.7 c 3 -6.3 8.8 -10.7 12.2 -16.7 c 0.6 -3.2 0.3 -6.7 2.3 -9.5 c 2.4 2.5 4.2 5.5 6.3 8.3 c 2.5 3.3 6 5.7 9.6 7.7 c 9.5 6 21.4 4.5 31.5 8.9 c -1.5 -10.4 -15.4 -11 -17.8 -20.8 c -1.2 -4.5 -2.2 -9 -2.4 -13.6 c 0.1 -8.1 3.6 -15.6 7.3 -22.6 c 2.6 -4.9 6.3 -10.5 12.5 -10.7 c -0.3 2.2 -1.1 4.4 -1.6 6.6 c 3.7 5.4 8.5 10 12.5 15.3 c 6.2 8.2 14.4 14.7 22.6 20.9 c 15.5 9.9 34 13.9 52.2 15.4 c 2.9 0.1 5.7 0.3 8.6 0.4 c -3 -2.3 -6 -4.5 -9.1 -6.6 c -1.6 -2.6 -4.5 -4.2 -6.4 -6.6 c -6.1 -6.9 -9 -15.8 -12.8 -24 c -0.6 -4.2 -2.3 -8.3 -1.8 -12.5 c 0.8 -8.4 4.9 -16 7 -24.1 c 2 -7.5 4.9 -14.9 5.4 -22.7 c 1.1 -13.9 -7.3 -27.9 -19.9 -33.8 C 768.7 565.6 763.1 563.9 757.9 565.8 M 481.5 741.7 c -10.4 0.9 -20.9 0.1 -31.4 -0.1 c 3.2 5.3 5.7 11.1 6.1 17.4 c 0.6 4.4 -0.7 8.8 -0.9 13.2 c 5.1 6.3 12.7 10.5 20.7 11.7 c 6 1 12.1 -1.4 18.1 -0.4 c 5 0.4 9.6 2.3 14.4 3.7 c 0.2 0.1 0.5 0.2 0.7 0.2 c 2.9 2.5 6.2 4.4 9.1 7 c 5.5 5 9.7 11.4 12.7 18.2 c 1.5 3.4 2.3 7.1 4 10.5 c 2.5 -4.6 5 -9.7 4.3 -15.1 c -0.5 -6.5 -3.9 -12.3 -6.8 -18 c -2.9 -6.3 -5.4 -13.2 -4.7 -20.3 c 0.8 -9.2 5.6 -17.9 12.6 -23.9 c 5.9 -5.8 12.6 -11.1 20.7 -13.3 c -0.9 -1.4 -1.7 -2.7 -2.6 -4.1 C 533.5 736 507.6 740.7 481.5 741.7 L 481.5 741.7 z" stroke-linecap="round" />
</g>
		<g transform="matrix(1 0 0 1 3.8 -1.7)" id="Layer_1"  >
<path style="stroke: none; stroke-width: 1; stroke-dasharray: none; stroke-linecap: butt; stroke-dashoffset: 0; stroke-linejoin: miter; stroke-miterlimit: 4; fill: rgb(254,199,27); fill-rule: nonzero; opacity: 1;"  transform=" translate(-490.7, -425.75)" d="M 491.1 28.6 c 0.3 -2.7 -0.4 -5.7 1.2 -8.1 c 9.9 16.9 18.8 35.2 20.5 55 c 1 18.4 -4.7 36.2 -9.9 53.6 c -1.9 0.6 -3.9 1.3 -5.8 2 c 1.8 4.1 6.7 4.6 10.6 4.6 c 7.7 -0.2 15.6 -1.5 22.7 -4.7 c 5.6 -2.5 9.8 -7.1 13.9 -11.5 c 7.5 -7 -0.5 -19.6 7.8 -26.3 c 1.3 8.5 7 15.4 9.1 23.6 c 1.5 5.5 2 11.4 0.9 17.1 c -0.7 4.2 -3.6 7.8 -3.3 12.2 c 3 -0.7 5.4 -3 8.4 -3.8 c 6.7 -0.3 13.4 1.7 20.1 0.8 c 17.4 -2.4 35.5 -7 49.1 -18.8 c 9.3 -7.6 14.1 -18.8 19.8 -29 c 4.1 -9.2 5.5 -19.4 6.8 -29.4 c 1.1 -7.8 0.7 -16.2 5 -23.2 c 1 5.2 0.2 10.6 1.8 15.7 c 0.9 2.8 2.4 5.2 4 7.6 c -3.9 7.6 -6 15.9 -9 23.8 c -2.4 6.5 -3.5 13.3 -5.9 19.8 c -1.4 3.9 -5.1 6.3 -7.8 9.2 c -3.3 3.1 -5.5 7.2 -8.7 10.4 c -3 2.3 -6.8 3.2 -10.1 4.9 c -6.4 2.9 -11.5 8 -18 10.7 c -15.9 7.1 -28.5 20.8 -34.8 37.1 c -20.7 -8.2 -42.2 -14.3 -64.3 -17.2 c -28.3 -4.7 -57.2 -4.5 -85.6 -0.6 c -3.4 -3.9 -6.7 -8 -9.4 -12.5 c 1.4 0.3 2.8 0.7 4.2 1.1 c -2.4 -4.8 -6.8 -7.9 -10.2 -11.8 c -0.7 -2.1 -1.3 -4.2 -1.9 -6.3 c -1.6 -0.3 -3.3 -0.6 -4.9 -0.9 c -7.3 -15.4 -0.8 -35.2 13.2 -44.4 c 7.1 -4.3 15.3 -6 23 -8.8 c 8.2 -2.9 17.2 -3.8 24.6 -8.5 c 4.1 -2.5 6.9 -6.6 9.8 -10.4 c 3.3 -4.3 5.9 -9 8.6 -13.7 C 490 42.1 490.6 35.2 491.1 28.6 M 190.8 55.3 C 199 56 207 58.3 214.3 62 c -5.8 8.1 -9.5 17.5 -12.3 27 c -2 -7.1 -2.6 -14.6 -5.1 -21.6 C 195.6 63 193.1 59.2 190.8 55.3 M 172 147.8 c 6.7 -17.3 18.8 -31.7 27.9 -47.7 c -0.7 9.1 1.2 18.1 0.5 27.1 c -1.9 13.8 0.1 28 5.1 41 c -2.1 4.2 -3.2 9.4 -0.7 13.7 c 2.4 4.7 7.6 7.2 12.7 7.6 c 7.4 8.6 16 16.4 26.1 21.7 c 14.5 8 31.3 10.9 47.7 9.8 c -15.8 12.5 -31 25.9 -44.2 41.2 c -3.7 4 -6.8 8.6 -10.7 12.5 c 2.5 -8.3 3.5 -17.5 0.2 -25.7 c -2 -6 -6.5 -10.6 -10.8 -15 c -0.4 -0.6 -1.2 -1.9 -1.6 -2.5 c -12.1 -4.5 -24.8 -9.5 -32.9 -20.1 C 174.3 195.3 168.8 170.3 172 147.8 M 367 139 c 7.1 -0.6 14 -2.5 21.1 -2.8 c -7.1 2.1 -13.9 4.9 -20.5 8.2 C 367.4 142.6 367.2 140.8 367 139 M 760.8 265.7 c 7.9 -6.9 17.7 -13.2 28.6 -12.3 c 11.3 1.5 21.2 8.8 28.3 17.4 c -11.8 3.2 -25.1 5.4 -33.6 15 c -6.6 7.3 -7.2 18 -4.6 27 c 1.6 7.1 5.6 13.5 6.6 20.8 c 1.2 6.9 0.3 14 -1.4 20.7 c -0.7 1.7 0.2 3.3 0.7 4.9 c 10.2 -6.6 20.3 -14.8 32.8 -16.1 c 13.9 -3.1 28.7 -2.5 41.8 3 c 7.9 3.2 15.3 7.8 22.1 12.9 c 4.3 3 6.4 8 8.9 12.4 c 3.8 7.6 7.6 15.3 10.2 23.4 c -5.7 -5.6 -11.1 -11.5 -17.7 -15.9 c -11.4 -8 -24.9 -12.7 -38.7 -14.5 c -3.9 -4.9 -10.2 -8.1 -16.5 -6.9 c -5.7 0.7 -10.4 4.5 -13 9.5 c -16.1 3.1 -30.5 12.6 -41.5 24.5 c -5.3 5.5 -9.1 12.2 -13.2 18.6 c -5.4 -34.7 -16.3 -68.7 -33.7 -99.2 c 13.5 -11.1 22.4 -27.7 23.8 -45.2 c 0.1 -2.7 0.8 -5.5 2.8 -7.4 c 0.8 5.7 0.6 11.6 -1.1 17.1 c -1.9 6.8 -6.6 12.4 -8.8 19.1 c 1.3 -0.4 2.9 -0.4 3.8 -1.6 c 5.5 -6.2 9.9 -13.7 11.2 -21.9 C 759.1 269.1 759 266.9 760.8 265.7 M 137.9 291.2 c -6.4 -8.9 -6.5 -20.8 -4.5 -31.1 c 1.3 8 3.9 16 9.4 22.1 c 8 9.5 21 14.7 33.4 13 c 4.1 -0.5 8.2 -2.3 12.4 -1.5 c 6.8 1.1 13.8 1.1 20.6 0.7 c 6.5 -0.5 12.2 -3.8 17.7 -6.8 c -1.7 3.6 -4.1 6.7 -6.2 10 c -10.9 17.2 -20.1 35.6 -27.1 54.8 c -0.6 1.1 -0.6 2.8 -1.8 3.4 c -2 0 -3.9 -0.5 -5.8 -0.9 c 3 -5.4 4.1 -11.7 3.9 -17.8 c -0.2 -5.4 0.1 -11.1 -1.7 -16.3 c -1.2 -3.7 -3.2 -7 -4.9 -10.5 c 4.3 -0.5 8.6 -0.7 12.9 -1.4 c -6.4 -6 -15.5 -1.8 -23.1 -2.1 C 160.3 305.3 146.4 301.7 137.9 291.2 M 79.5 354.9 c 27.5 -5.2 57.2 4.2 76.7 24.3 c -5.7 -0.7 -12.1 0.1 -16 4.7 c -5.5 5.9 -5.2 15.9 0.6 21.5 c 5.5 5.7 15.6 6 21.3 0.3 c 3.7 -3.1 5.1 -8.1 5.3 -12.8 c 2.3 4.4 5 8.5 6.7 13.2 c 1.1 2.5 1.7 5.5 3.8 7.4 c -1.8 14.1 -2.8 28.2 -2.8 42.4 c 0 4.7 0.8 9.5 0.3 14.2 c -1.1 2.4 -2.3 4.8 -3.5 7.2 c 1.4 0.4 2.8 0.8 4.2 1.2 c 3.8 40.6 15.6 80.6 36 116 c 1.7 2.9 3.4 5.8 4.9 8.8 c -9 -3.6 -18.7 -5.2 -28.3 -3.8 c 2.4 -4.7 5.2 -9.6 5.5 -15 c -6.3 3.8 -8.5 11.2 -12.2 17.1 c -6.4 1.8 -12.2 5.4 -16.9 10.1 c -15.3 4.1 -33.8 -1.1 -42.8 -14.8 c -4.7 -7.1 -9.7 -13.9 -13.9 -21.2 c -2.6 -4.6 -5.8 -9 -10.1 -12.1 c -3.7 -2.8 -8.2 -4.1 -12.4 -5.7 c -6.6 -2.4 -13.3 -4.9 -20.4 -5.4 c -8.2 -0.8 -16.2 1.6 -24.3 2.6 c 12.5 -12.2 26.9 -22.6 42.9 -29.6 c 9.5 -4.4 20 -5.7 30.4 -6.8 c 11.2 -1.2 22.5 0.6 33.8 0.4 c 1.5 1.6 2.6 3.6 3.8 5.4 c 3.1 -3 3.3 -7.6 2.2 -11.6 c -1.3 -4.4 -3.5 -8.5 -5.6 -12.6 c -4.3 -8.5 -12.5 -14.4 -21.1 -18.3 c -9 -4.7 -18.9 4.9 -27.8 -0.6 c 2.8 -2.1 6.4 -3.1 9 -5.5 c 7.6 -6.6 16.7 -12.1 26.9 -13 c 5.1 -0.6 10.2 1.3 15.3 0.5 c -1.7 -3 -4.7 -4.8 -6.4 -7.8 c -1.6 -6.1 -1.8 -12.5 -4.2 -18.4 c -6.4 -15 -14.8 -29.8 -27.8 -40.1 c -5.4 -4.2 -11.5 -7.6 -18 -9.5 c -9.5 -2.8 -19.1 -6.1 -29.1 -6.1 c -3.9 0.1 -7.7 0.4 -11.6 0.4 c -8.1 0 -16 2.1 -24.2 2.1 c 0.6 -1.3 1.2 -2.7 1.9 -4 c 2.9 -1.4 6 -2.6 8.4 -4.8 c 4.8 -4.6 9.8 -9.2 15.3 -12.9 C 63.3 359.6 71.1 356.2 79.5 354.9 M 123.3 368.9 c -2 1 -3.4 3.7 -1.8 5.7 c 1.4 2.6 5.2 2.9 6.8 0.3 C 130.7 371.9 126.8 366.8 123.3 368.9 M 155.2 425.4 c -5.1 2.1 -6.7 9.9 -2.1 13.4 c 4.5 4 12.7 1.1 13 -5.1 C 167 427.9 160.5 422.9 155.2 425.4 M 914.6 418.3 c 11.7 5.5 23.8 11.9 37.1 11.4 c -8.3 9.3 -19 18.5 -32.3 18 C 919.7 437.7 917.4 427.9 914.6 418.3 M 744 556.3 c 1.4 2.5 3 4.9 4.5 7.3 c -2.8 0.7 -5.6 1.5 -8.3 2.3 C 741.3 562.7 742.6 559.4 744 556.3 M 757.9 565.8 c 5.2 -1.8 10.7 -0.1 15.5 2 c 12.5 6 20.9 19.9 19.9 33.8 c -0.6 7.8 -3.5 15.2 -5.4 22.7 c -2.1 8.1 -6.2 15.7 -7 24.1 c -0.5 4.3 1.1 8.4 1.8 12.5 c -2.3 -2.5 -5 -4.6 -6.7 -7.5 c -0.5 -1.7 0.3 -3.4 0.6 -5.1 c 3.4 -13.6 -0.1 -28.7 -9.1 -39.4 c -5.1 -6.1 -11.8 -10.6 -18.6 -14.5 c -6.1 -3.4 -13 -4.7 -19.8 -5.6 c 3.6 -6.5 6.8 -13.1 9.8 -19.9 C 745.4 569.3 751.7 567.6 757.9 565.8 M 242.1 638.1 c 21.8 25.5 47.7 47.6 76.9 64.2 c 13.2 7.5 27 14.3 41.2 19.7 c -5.5 3.6 -10.3 8.2 -14.4 13.3 c -1.9 0 -3.8 0 -5.6 0.1 c -0.8 8.6 -1.3 17.4 -4.6 25.5 c -2 5.1 -5.6 9.3 -8.7 13.8 c -11 15.5 -28.3 25.4 -45.9 31.8 c -5.4 1.8 -10.8 4 -16.5 4.7 c -11.8 0.8 -23.5 -1.2 -35.1 -3 c -10.6 -1.4 -21.1 -5 -31.9 -4.1 c -8.8 -0.1 -16 5.3 -23.7 8.7 c -7.5 3.4 -14 8.6 -20 14.2 c -1.1 -10.7 -0.7 -22.5 6 -31.4 c 3.5 -4.9 9.3 -7.2 14.6 -9.7 c 17.7 -7.7 37.5 -10.8 53.5 -22.1 c 8.4 -5.9 17.2 -12.1 22.4 -21.2 c 3.9 -7.1 5.3 -15.2 6.8 -23 c 1.7 -9.2 -0.7 -18.5 -1.7 -27.6 c -0.3 -3 -2.2 -5.4 -4.3 -7.5 c -3.4 4.7 -4.8 10.8 -9.6 14.5 c -3.8 3 -8 5.4 -12 8.1 c -8.3 5.5 -18.3 7.8 -28 9.5 c -13.7 2.3 -27.5 4.5 -41.4 4.1 c -3.4 -0.1 -6.9 0 -10.2 -1.3 c 5.8 -2.4 11.5 -4.9 16.9 -8.1 c 10.7 3.2 22.5 2.4 32.6 -2.4 c 9.9 -4.7 18.1 -13.2 22.2 -23.4 c 2.2 -5.9 8.3 -8.8 11.6 -14 C 240.7 662.2 243 649.9 242.1 638.1 M 276.4 702.8 c -3.3 1.6 -5.1 6.2 -1.9 8.9 c 2.9 3.9 9.9 1 9.5 -3.8 C 284.4 704.2 279.5 701.2 276.4 702.8 M 289.2 724.1 c -6.4 1.2 -11.5 7.1 -11.5 13.6 c -0.5 8.1 7.3 15.4 15.4 14.4 c 9.2 -0.3 15.8 -11.4 11.7 -19.6 C 302.4 726.6 295.4 722.7 289.2 724.1 M 265.7 766.5 c -5 1.7 -6.1 9 -1.7 12 c 3.7 3.6 10.2 1.3 11.2 -3.6 C 277.2 769.5 270.8 764 265.7 766.5 M 654.7 677.3 c 10.6 -8.6 20.3 -18.2 29.8 -28 c 2.7 5.4 -1.7 10.3 -2.8 15.5 c -3.2 11.2 -1 23.2 3.9 33.6 c -3.6 -2 -7.1 -4.4 -9.6 -7.7 c -2.1 -2.8 -3.8 -5.8 -6.3 -8.3 c -1.9 2.8 -1.6 6.3 -2.3 9.5 c -3.4 6 -9.2 10.4 -12.2 16.7 c -7.7 16 -14.3 33.7 -11.8 51.7 c 1.1 10.8 7.1 20.1 11.7 29.7 c 3.6 7.7 10.4 13 16.1 19.1 c 7.1 7.5 17 12.5 21.9 21.9 c -5.7 -2.8 -10.7 -7.5 -17.3 -8.1 c -4.6 -0.4 -9.2 -0.5 -13.8 -1.2 c -18.2 -2.3 -37 -0.5 -54.7 -6.3 c -8.4 -3 -17.1 -7.2 -22.1 -15 c -5.3 -8.3 -8.6 -18 -8.8 -27.9 c 0.2 -16.1 -3.5 -32.6 -12.3 -46.1 C 597 715.8 627.8 699 654.7 677.3 M 801.9 691.6 c 3.1 2.1 6.1 4.3 9.1 6.6 c -2.9 -0.1 -5.7 -0.2 -8.6 -0.4 C 802.3 695.7 802.1 693.6 801.9 691.6 M 423.5 739 c 5.7 1 11.5 1.4 17.3 2.2 c 1.3 0 2.2 1.2 3 2.1 c 7 8.6 8.5 21.2 4.1 31.3 c -3.9 8.8 -13 13.4 -21.4 17 c 2.5 -7.5 4.8 -15.3 4 -23.3 C 429.3 758.2 428.3 748 423.5 739 M 450.1 741.6 c 10.5 0.2 20.9 0.9 31.4 0.1 c -0.1 11.2 2.9 22.7 10.1 31.4 c 4.4 6 11 9.6 16.9 14 c -4.8 -1.4 -9.4 -3.3 -14.4 -3.7 c -6 -1 -12.1 1.4 -18.1 0.4 c -8 -1.1 -15.6 -5.4 -20.7 -11.7 c 0.3 -4.4 1.6 -8.7 0.9 -13.2 C 455.8 752.8 453.3 747 450.1 741.6 M 509.1 787.3 c 7.7 1.7 15.4 3.4 23.4 2.6 c 2.9 5.7 6.3 11.5 6.8 18 c 0.6 5.4 -1.9 10.5 -4.3 15.1 c -1.7 -3.3 -2.5 -7 -4 -10.5 c -3 -6.8 -7.2 -13.2 -12.7 -18.2 C 515.4 791.7 512 789.8 509.1 787.3 L 509.1 787.3 z" stroke-linecap="round" />
</g>
		<g transform="matrix(1 0 0 1 -16.39393105 2.85)" id="Layer_1"  >
<path style="stroke: none; stroke-width: 1; stroke-dasharray: none; stroke-linecap: butt; stroke-dashoffset: 0; stroke-linejoin: miter; stroke-miterlimit: 4; fill: rgb(255,209,66); fill-rule: nonzero; opacity: 1;"  transform=" translate(-470.50606895, -430.3)" d="M 202 89 c 2.8 -9.5 6.5 -18.9 12.3 -27 c 4.9 3.1 9.6 7.5 10.8 13.4 c 3.4 13.1 1.9 26.8 3.5 40.1 c 1.1 9.8 4.7 19.2 9.1 28 c 3.2 5.7 6.7 11.7 12.4 15.2 c 11.7 7.5 24.7 13.8 38.7 15.3 c 5.6 0.5 11.3 3.6 16.7 0.5 c -3.8 -4 -9 -6.8 -11.6 -11.8 c -4.6 -10 -8.2 -20.8 -7 -32 c 1.5 -18.4 3.8 -37.4 12.5 -54.1 c 0.9 1.5 1.3 3.1 1.5 4.8 c 1.9 13.5 6.8 26.9 15.9 37.3 c 9.7 10 22.2 18 36.3 19.8 c 4.6 0.2 9.2 -0.2 13.8 0.4 c 0.2 1.8 0.4 3.6 0.6 5.4 c 6.6 -3.3 13.4 -6.2 20.5 -8.2 c 6.4 -0.8 13.2 0.4 18.4 4.3 c 4.7 3.5 9.5 7 13.7 11.1 c 2.7 4.5 6 8.5 9.4 12.5 c -49.2 6.8 -96.5 26.5 -136.5 55.9 c -0.5 0.2 -1.4 0.7 -1.9 1 c -16.4 1.1 -33.2 -1.8 -47.7 -9.8 c -10.1 -5.3 -18.7 -13.1 -26.1 -21.7 c 4.9 -1.3 10 -4 11.6 -9.1 c 3 -7.5 -2.4 -16.7 -10.4 -17.6 c -5.1 -1 -9.9 1.8 -13.2 5.4 c -5 -13 -7 -27.1 -5.1 -41 c 0.7 -9 -1.2 -18.1 -0.5 -27.1 C 200.5 96.4 201.4 92.7 202 89 M 213.7 134.1 c -4.2 2.3 -1.1 8.6 2.8 9 c 2.8 0.1 5 -3.1 4 -5.7 C 219.8 134.6 216.4 132.6 213.7 134.1 M 238.2 191.7 c -5.6 2.4 -6.3 11.1 -1 14.3 c 4.8 3.6 12.5 -0.1 12.8 -6.1 C 250.8 193.8 243.6 188.8 238.2 191.7 M 664.8 89.8 c 3 -7.9 5.1 -16.2 9 -23.8 c 3.1 4.2 4.9 9.2 7.5 13.6 c 7.7 13.6 17.9 26.2 22 41.7 c 3 10.7 4.5 23.2 -1.6 33.1 c -4.7 8.1 -11 15.4 -19 20.5 c -11.1 7.5 -20.1 18 -26.4 29.9 c -1.7 2.9 -1.5 6.5 0.4 9.2 c 1.4 -2.1 2.8 -4.3 4.2 -6.4 c 8.6 7.2 20 9.3 30.8 11.1 c 10.8 0 22.2 -4.9 28.4 -14 c 5.1 -6.7 7.5 -15.3 14.1 -21 c 4.3 -4.4 10.7 -5.1 16.5 -5.5 c -2.8 4.5 -6.5 8.4 -8.8 13.2 c -4.9 9.6 -8.2 20.9 -5.3 31.6 c 1.6 7.6 5.5 14.4 10.7 20.1 c 3.8 4.1 5.9 9.3 6.6 14.8 l -0.2 0.3 c -2 2 -2.7 4.7 -2.8 7.4 c -1.4 17.5 -10.4 34.1 -23.8 45.2 c -8.9 -14.8 -18.3 -29.3 -29.5 -42.5 c -31.4 -38 -72.4 -67.8 -118 -86.5 c 6.3 -16.2 18.8 -30 34.8 -37.1 c 6.5 -2.7 11.6 -7.8 18 -10.7 c 3.3 -1.7 7.1 -2.6 10.1 -4.9 c 3.2 -3.2 5.4 -7.2 8.7 -10.4 c 2.7 -3 6.4 -5.3 7.8 -9.2 C 661.3 103.1 662.4 96.3 664.8 89.8 M 643.3 132.3 c -8.6 0.1 -16.2 7.9 -16.1 16.5 c -0.4 8.7 7 16.7 15.7 17.1 c 9.1 0.8 17.8 -6.9 17.9 -16 C 661.5 140.3 652.8 131.6 643.3 132.3 M 615.6 171.6 c -4.5 2.3 -4.4 9.4 0 11.7 c 4.2 2.6 10.2 -0.9 10 -5.8 C 625.9 172.5 619.8 168.9 615.6 171.6 M 407.5 133.7 c 1.6 0.3 3.3 0.6 4.9 0.9 c 0.6 2.1 1.2 4.2 1.9 6.3 C 411.6 139 408.8 136.8 407.5 133.7 M 349.2 193.2 c 47.1 -21.3 99.8 -29.4 151.2 -24.5 c 4.8 0.5 9.7 0.8 14.4 2 c -2.3 0.2 -4.6 0.5 -7 0.3 c -37.7 -3.9 -76.3 0.2 -112.3 12 c -33.3 10.7 -64.3 28.1 -91.1 50.4 c -50 41.9 -84.5 102.1 -94.8 166.6 c -8.7 54.2 -1.3 111.1 22.3 160.8 c 15.3 32.5 36.9 62.1 63.3 86.4 c 30.3 27.9 67 48.7 106.5 60.4 c 46.1 13.8 95.9 15.1 142.7 3.9 c 39.7 -9.5 77.2 -28 108.9 -53.7 c 61.9 -49.7 100.5 -127.6 101.4 -207.1 c 0.1 -0.7 0.2 -2 0.2 -2.7 c 1.3 12.5 -0.4 25 -0.9 37.5 c -0.9 11.3 -3.1 22.4 -5.6 33.4 c -1.4 6.5 -3.6 12.8 -4.6 19.4 c -4.4 15.9 -11.6 30.8 -18.9 45.6 c -18.4 35.4 -45.3 65.7 -76 90.9 c -29.1 22.6 -62.5 39.6 -98 49.7 c -44.2 12.8 -91.3 14.5 -136.5 6.5 c -41.8 -7.6 -82.1 -24.2 -116.6 -49.1 c -13.5 -10.1 -26.6 -20.7 -38.3 -32.9 c -25.7 -27.3 -46.5 -59.3 -59.7 -94.5 c -15.4 -39.8 -20.4 -83.2 -17.1 -125.6 c 4.9 -67.3 35.5 -132.1 83.5 -179.4 C 290.6 226.3 318.6 207 349.2 193.2 M 225.8 233.9 c 4.3 4.4 8.8 9 10.8 15 c 3.4 8.2 2.3 17.4 -0.2 25.7 c -2.8 4.5 -5.9 8.9 -9.5 12.8 c -5.5 3.1 -11.2 6.4 -17.7 6.8 c -6.9 0.4 -13.8 0.5 -20.6 -0.7 c -4.2 -0.8 -8.2 1 -12.4 1.5 c -12.4 1.7 -25.4 -3.4 -33.4 -13 c -5.5 -6.1 -8 -14.1 -9.4 -22.1 c 0.1 -1.8 0.4 -3.5 0.7 -5.3 c 8.6 7 16.8 15.3 27.6 18.8 c 7.3 2.3 15.2 -0.1 21.5 -4 c 5.7 -3.5 9.3 -9.2 13.2 -14.5 c 4.4 -6.4 9.8 -12.5 16.8 -16.2 C 217.2 236.7 221.7 236 225.8 233.9 M 100 328.8 c 16 -6.1 34.1 0.4 46.5 11.2 c 9.7 8.9 21.6 15.1 34 19.2 c 3.2 1.1 6.6 1.1 9.9 1.3 c -5.9 17.2 -10.1 35 -12.7 53 c -2.2 -1.9 -2.7 -4.9 -3.8 -7.4 c -1.7 -4.7 -4.4 -8.8 -6.7 -13.2 c -1.1 -3.1 -2 -6.4 -4.3 -8.8 c -2 -2.1 -4.5 -3.5 -6.8 -5 c -19.5 -20.1 -49.2 -29.4 -76.7 -24.3 c -8.3 1.3 -16.1 4.7 -24 7.5 C 68.9 349.6 82 335 100 328.8 M 844.9 364.4 c 13.8 1.8 27.3 6.5 38.7 14.5 c 6.6 4.4 12 10.3 17.7 15.9 c 3 4.8 4.4 10.5 7.5 15.3 c 1.5 3 4.2 5.2 5.8 8.2 c 2.7 9.6 5 19.4 4.8 29.4 c -18.3 -4.6 -31.8 -19.2 -49.5 -25.2 c -9 -2.6 -18.4 -5 -27.8 -4.2 c -9.9 0.8 -18.6 6.2 -27 11.1 c -9.1 5.1 -15.8 13.4 -23 20.7 c -2.2 2 -3.4 4.8 -4.3 7.6 c 5.6 -0.7 10.9 -3.8 16.7 -2.8 c 10.5 1.9 21.6 4.3 29.9 11.4 c 12.9 10.4 25.4 21.7 34.7 35.5 c 1.2 1.9 2.8 3.8 2.7 6.2 c -12.6 -6.3 -26.5 -11.8 -40.9 -10.3 c -13.6 1.9 -27.3 6.9 -37.3 16.6 c -5.9 6.5 -10.8 14 -14.3 22.1 c -2.8 6.1 -5.6 12.3 -10.2 17.3 c -5.3 5.9 -13.4 8 -20.8 10 c -1.5 -2.4 -3.1 -4.8 -4.5 -7.3 c 0.2 -2.6 1.5 -5 2.3 -7.4 c 15.6 -44.1 20.9 -92 14.2 -138.4 l 0.2 -0.4 c 4.1 -6.4 7.9 -13.1 13.2 -18.6 c 11 -11.9 25.4 -21.4 41.5 -24.5 c -2.5 6.7 -1.5 14.9 4.1 19.7 c 6.9 6.7 19.5 5.5 25 -2.4 C 848.9 378.6 848.4 370.5 844.9 364.4 M 803.8 396.9 c -4.5 0.9 -7.8 5.6 -7.1 10.2 c 0.4 5.4 6.2 9.3 11.4 8 c 5.1 -1 8.5 -7 6.7 -11.9 C 813.4 398.6 808.3 395.8 803.8 396.9 M 855.9 397 c -2.9 1.1 -3.4 5.7 -0.9 7.5 c 2.1 1.7 5.7 0.7 6.6 -1.9 C 863.3 399.2 859.2 395.4 855.9 397 M 21.6 383 c 3.3 -1.4 6.7 -2.1 10.1 -2.9 c -0.6 1.3 -1.3 2.7 -1.9 4 C 27.1 383.9 24.3 383.6 21.6 383 M 171.9 477.3 c 1.1 -2.4 2.4 -4.8 3.5 -7.2 c 0.3 2.8 0.5 5.6 0.7 8.4 C 174.7 478.1 173.3 477.7 171.9 477.3 M 729 588.9 c 6.8 0.9 13.8 2.2 19.8 5.6 c 6.9 3.9 13.5 8.4 18.6 14.5 c 9 10.7 12.5 25.8 9.1 39.4 c -0.2 1.6 -1 3.4 -0.6 5.1 c 1.6 3 4.4 5.1 6.7 7.5 c 3.8 8.2 6.7 17.1 12.8 24 c 1.9 2.4 4.8 4 6.4 6.6 c 0.2 2.1 0.4 4.1 0.5 6.2 c -18.1 -1.5 -36.6 -5.6 -52.2 -15.4 c -8.2 -6.2 -16.3 -12.7 -22.6 -20.9 c -4 -5.2 -8.8 -9.8 -12.5 -15.3 c 0.5 -2.2 1.3 -4.3 1.6 -6.6 c -6.2 0.2 -9.9 5.8 -12.5 10.7 c -3.7 7 -7.2 14.5 -7.3 22.6 c 0.3 4.6 1.2 9.2 2.4 13.6 c 2.5 9.7 16.3 10.4 17.8 20.8 c -10.1 -4.4 -22 -2.8 -31.5 -8.9 c -4.9 -10.4 -7.1 -22.4 -3.9 -33.6 c 1.1 -5.2 5.5 -10.1 2.8 -15.5 C 701.8 631.1 716.6 610.7 729 588.9 M 188.8 599.5 c 9.6 -1.3 19.3 0.3 28.3 3.8 c 5.2 7.1 9.7 14.9 15.3 21.9 c 3.1 4.5 7 8.3 9.8 12.9 c 0.9 11.7 -1.4 24 -8.7 33.5 c -3.3 5.1 -9.5 8 -11.6 14 c -4.1 10.2 -12.3 18.7 -22.2 23.4 c -10.1 4.8 -21.9 5.6 -32.6 2.4 c 6.8 -4.6 14 -9.2 19.3 -15.6 c 7 -9.5 12.8 -20.4 13.9 -32.4 c 0.7 -7.2 -2.1 -14 -4.3 -20.7 c -3.4 -9.9 -10.9 -18.5 -10.8 -29.4 C 184.6 608.4 186.5 603.7 188.8 599.5 M 165.2 611.7 c 4.7 -4.7 10.5 -8.3 16.9 -10.1 C 178.4 607.4 171.7 610.4 165.2 611.7 M 360.2 722 c 20.5 7.7 41.7 13.4 63.3 16.9 c 4.8 9 5.8 19.3 7 29.2 c 0.8 8 -1.5 15.8 -4 23.3 l -0.1 0.3 c -7.5 3.2 -15.3 5.9 -23.3 6.9 c 4.3 -8 9.1 -15.9 10.7 -24.9 c 0.9 -6.9 -3.6 -13.5 -9.5 -16.8 c -8.8 -5.5 -19.5 -5.5 -29.4 -7.1 c -10.9 -1.6 -22.2 -5.3 -29.9 -13.7 l 0.8 -1 C 349.9 730.2 354.7 725.6 360.2 722 M 481.5 741.7 c 26.1 -1 52 -5.7 77 -13.3 c 0.9 1.4 1.7 2.7 2.6 4.1 c -8.1 2.1 -14.8 7.5 -20.7 13.3 c -7 6 -11.8 14.7 -12.6 23.9 c -0.7 7.1 1.9 13.9 4.7 20.3 c -7.9 0.8 -15.7 -0.9 -23.4 -2.6 c -0.2 -0.1 -0.5 -0.2 -0.7 -0.2 c -5.9 -4.4 -12.5 -7.9 -16.9 -14 C 484.4 764.3 481.4 752.9 481.5 741.7 L 481.5 741.7 z" stroke-linecap="round" />
</g>
		<g transform="matrix(1 0 0 1 4.50916507 28.80829668)" id="Layer_1"  >
<path style="stroke: none; stroke-width: 1; stroke-dasharray: none; stroke-linecap: butt; stroke-dashoffset: 0; stroke-linejoin: miter; stroke-miterlimit: 4; fill: rgb(255,213,3); fill-rule: nonzero; opacity: 1;"  transform=" translate(-491.40916507, -456.25829668)" d="M 643.3 132.3 c 9.5 -0.7 18.3 8.1 17.5 17.6 c -0.1 9.2 -8.9 16.9 -17.9 16 c -8.7 -0.4 -16.1 -8.4 -15.7 -17.1 C 627.1 140.1 634.6 132.4 643.3 132.3 M 213.7 134.1 c 2.7 -1.5 6.1 0.5 6.8 3.3 c 1 2.6 -1.1 5.8 -4 5.7 C 212.6 142.6 209.5 136.4 213.7 134.1 M 205.5 168.2 c 3.4 -3.6 8.1 -6.4 13.2 -5.4 c 8 0.9 13.4 10.1 10.4 17.6 c -1.7 5.1 -6.7 7.8 -11.6 9.1 c -5.1 -0.4 -10.3 -2.9 -12.7 -7.6 C 202.3 177.5 203.4 172.4 205.5 168.2 M 395.5 183 c 36.1 -11.7 74.6 -15.8 112.3 -12 c 2.3 0.2 4.6 -0.1 7 -0.3 c 31.7 4.1 62.5 14.4 91 28.9 c 65.6 34.3 117.6 94.9 139.3 165.9 c 13.5 43.2 16.2 89.5 8.3 134 c -2.4 13.1 -5 26.2 -9.3 38.7 c 1 -6.6 3.2 -12.9 4.6 -19.4 c 2.5 -11 4.7 -22.1 5.6 -33.4 c 0.5 -12.5 2.1 -25 0.9 -37.5 c -0.1 0.7 -0.2 2 -0.2 2.7 c -1 79.5 -39.5 157.4 -101.4 207.1 c -31.7 25.7 -69.2 44.3 -108.9 53.7 c -46.8 11.2 -96.6 9.9 -142.7 -3.9 c -39.5 -11.7 -76.2 -32.5 -106.5 -60.4 c -26.4 -24.3 -48 -53.9 -63.3 -86.4 c -23.6 -49.7 -31 -106.6 -22.3 -160.8 c 10.3 -64.5 44.8 -124.6 94.8 -166.6 C 331.2 211.1 362.2 193.7 395.5 183 M 615.6 171.6 c 4.2 -2.7 10.3 0.9 10.1 5.9 c 0.1 4.9 -5.9 8.4 -10 5.8 C 611.2 181 611.1 173.9 615.6 171.6 M 238.2 191.7 c 5.4 -2.9 12.6 2.1 11.7 8.2 c -0.2 6 -8 9.7 -12.8 6.1 C 231.9 202.8 232.5 194.1 238.2 191.7 M 828.4 357.5 c 6.3 -1.2 12.6 2.1 16.5 6.9 c 3.5 6.1 4 14.1 -0.5 19.9 c -5.5 8 -18 9.1 -25 2.4 c -5.5 -4.8 -6.6 -13.1 -4.1 -19.7 C 818.1 362.1 822.8 358.2 828.4 357.5 M 123.3 368.9 c 3.5 -2.1 7.5 2.9 5 6 c -1.6 2.6 -5.4 2.2 -6.8 -0.3 C 119.8 372.7 121.3 369.9 123.3 368.9 M 140.2 383.9 c 3.9 -4.6 10.4 -5.4 16 -4.7 c 2.3 1.6 4.9 3 6.8 5 c 2.3 2.4 3.1 5.7 4.3 8.8 c -0.2 4.7 -1.6 9.6 -5.3 12.8 c -5.7 5.6 -15.7 5.3 -21.3 -0.3 C 135 399.8 134.7 389.8 140.2 383.9 M 803.8 396.9 c 4.5 -1.1 9.6 1.7 10.9 6.2 c 1.8 4.9 -1.5 10.9 -6.7 11.9 c -5.2 1.4 -11 -2.6 -11.4 -8 C 796 402.5 799.3 397.9 803.8 396.9 M 855.9 397 c 3.3 -1.7 7.4 2.2 5.8 5.6 c -0.9 2.6 -4.5 3.6 -6.6 1.9 C 852.4 402.7 852.9 398.1 855.9 397 M 155.2 425.4 c 5.4 -2.5 11.9 2.5 10.9 8.3 c -0.3 6.2 -8.5 9.1 -13 5.1 C 148.5 435.3 150 427.5 155.2 425.4 M 276.4 702.8 c 3.1 -1.6 8.1 1.4 7.6 5.1 c 0.4 4.7 -6.6 7.7 -9.5 3.8 C 271.3 709 273.1 704.4 276.4 702.8 M 289.2 724.1 c 6.2 -1.4 13.2 2.5 15.6 8.4 c 4.1 8.2 -2.6 19.3 -11.7 19.6 c -8 1 -15.8 -6.3 -15.4 -14.4 C 277.8 731.2 282.8 725.3 289.2 724.1 M 265.7 766.5 c 5.1 -2.5 11.5 3 9.6 8.4 c -1 4.9 -7.6 7.2 -11.2 3.6 C 259.6 775.5 260.7 768.2 265.7 766.5 L 265.7 766.5 z" stroke-linecap="round" />
</g>
</g>
</g>
<g transform="matrix(2.75776902 0 0 2.80573018 602.74038981 115.63445303)" style=""  >
		<text xml:space="preserve" font-family="Georgia" font-size="25" font-weight="bold" style="stroke: none; stroke-width: 1; stroke-dasharray: none; stroke-linecap: butt; stroke-dashoffset: 0; stroke-linejoin: miter; stroke-miterlimit: 10; fill: rgb(162,92,13); fill-rule: nonzero; opacity: 1; white-space: pre;" ><tspan x="-65.97290039" y="7.8535" >Check Out</tspan></text>
</g>
<g transform="matrix(3.46519667 0 0 3.46519667 615.10238907 189.65057482)" style=""  >
		<text xml:space="preserve" font-family="Georgia" font-size="25" font-weight="bold" style="stroke: none; stroke-width: 1; stroke-dasharray: none; stroke-linecap: butt; stroke-dashoffset: 0; stroke-linejoin: miter; stroke-miterlimit: 10; fill: rgb(162,92,13); fill-rule: nonzero; opacity: 1; white-space: pre;" ><tspan x="-26.08032227" y="7.8535" style="white-space: pre; ">our </tspan></text>
</g>
<g transform="matrix(2.9136429 0 0 2.9136429 613.3637956 240.99303931)" style=""  >
		<text xml:space="preserve" font-family="Georgia" font-size="25" font-weight="bold" style="stroke: none; stroke-width: 1; stroke-dasharray: none; stroke-linecap: butt; stroke-dashoffset: 0; stroke-linejoin: miter; stroke-miterlimit: 10; fill: rgb(162,92,13); fill-rule: nonzero; opacity: 1; white-space: pre;" ><tspan x="-55.60913086" y="7.8535" >Summer</tspan></text>
</g>
<g transform="matrix(2.36208907 0 0 2.36208907 619.35894557 308.09075803)" style=""  >
		<text xml:space="preserve" font-family="Georgia" font-size="25" font-weight="bold" style="stroke: none; stroke-width: 1; stroke-dasharray: none; stroke-linecap: butt; stroke-dashoffset: 0; stroke-linejoin: miter; stroke-miterlimit: 10; fill: rgb(162,92,13); fill-rule: nonzero; opacity: 1; white-space: pre;" ><tspan x="-48.60839844" y="7.8535" >Hours !</tspan></text>
</g>
<g transform="matrix(1.4268457 0 0 1.4268457 597.64451233 400.59592238)" style=""  >
		<text xml:space="preserve" font-family="Georgia" font-size="25" font-weight="bold" style="stroke: none; stroke-width: 1; stroke-dasharray: none; stroke-linecap: butt; stroke-dashoffset: 0; stroke-linejoin: miter; stroke-miterlimit: 10; fill: rgb(0,0,0); fill-rule: nonzero; opacity: 1; white-space: pre;" ><tspan x="-130.10253906" y="7.8535" >Mon - Fri 9am - 7pm</tspan></text>
</g>
<g transform="matrix(1.39087482 0 0 1.39087482 598.69965869 440.43968921)" name="time" style=""  >
		<text xml:space="preserve" font-family="Georgia" font-size="25" font-weight="bold" style="stroke: none; stroke-width: 1; stroke-dasharray: none; stroke-linecap: butt; stroke-dashoffset: 0; stroke-linejoin: miter; stroke-miterlimit: 10; fill: rgb(0,0,0); fill-rule: nonzero; opacity: 1; white-space: pre;" ><tspan x="-134.49707031" y="7.8535" >Sat - Sun 10am - 5pm</tspan></text>
</g>
</svg>